<?xml version="1.0" encoding="utf-8"?>
<!-- Generator: Adobe Illustrator 16.0.0, SVG Export Plug-In . SVG Version: 6.00 Build 0)  -->
<!DOCTYPE svg PUBLIC "-//W3C//DTD SVG 1.1//EN" "http://www.w3.org/Graphics/SVG/1.1/DTD/svg11.dtd">
<svg version="1.1" id="Layer_1" xmlns="http://www.w3.org/2000/svg" xmlns:xlink="http://www.w3.org/1999/xlink" x="0px" y="0px"
	 width="100px" height="100px" viewBox="0 0 100 100" enable-background="new 0 0 100 100" xml:space="preserve">
<path fill-rule="evenodd" clip-rule="evenodd" fill="#F8BE39" d="M95.245,43.727c-0.006-0.217-0.035-0.436-0.08-0.65
	c-0.997-4.799-3.724-8.05-8.486-9.477c-1.157-0.346-2.325-0.588-3.546-0.563c-1.419,0.03-2.841-0.102-4.25,0.178
	c-0.324,0.064-0.895-0.439-0.932-0.781c-0.047-0.434-0.104-0.867-0.137-1.302c-0.093-1.309-0.184-2.616-0.261-3.927
	c-0.054-0.932-0.456-1.652-1.19-2.234c-0.128-0.102-0.383-0.008-0.669,0.164c-0.044-0.145-0.08-0.293-0.126-0.436
	c-0.32-0.971-0.737-1.908-1.099-2.864c-1.116-2.953-3.024-5.298-5.432-7.306c-2.044-1.703-4.373-2.355-6.973-2.182
	c-1.244,0.084-2.48,0.196-3.697,0.572c-1.227,0.377-2.479,0.309-3.585-0.492c-1.641-1.187-3.508-1.602-5.483-1.53
	c-1.149,0.04-2.27-0.1-3.39-0.287c-1.384-0.231-2.213-1.069-2.576-2.399c-0.118-0.439-0.208-0.891-0.378-1.308
	c-0.061-0.147-0.333-0.308-0.489-0.291c-0.188,0.02-0.46,0.187-0.516,0.353c-0.478,1.391-0.977,2.77-1.53,4.138
	c-0.893,2.206-2.379,3.829-4.237,5.208c-1.294,0.962-2.683,1.604-4.288,1.967c-2.883,0.651-5.792,1.134-8.694,1.664
	c-0.664,0.122-1.369,0.249-1.947,0.567c-1.51,0.833-2.813,1.935-3.701,3.449c-0.526,0.892-1.044,1.788-1.236,2.827
	c-1.436,0.563-0.476,4.152-0.241,6.186c0.448,3.903,1.113,7.783,1.689,11.674c0.065,0.432,0.065,0.892,0.222,1.289
	c0.854,2.156,1.196,4.415,1.459,6.701c0.099,0.861,0.354,1.711,0.583,2.553c1.121,4.11,1.976,8.293,3.491,12.289
	c0.039,0.101,0.037,0.215,0.062,0.321c0.062,0.263-0.157,0.76-0.39,0.819c-1.057,0.27-2.112,0.561-3.178,0.78
	c-2.788,0.573-5.532,1.287-8.223,2.217c-1.825,0.63-3.299,1.705-4.445,3.217c-0.589,0.778-1.057,1.652-1.549,2.501
	c-0.781,1.349-0.66,2.727-0.024,4.082c0.611,1.306,1.479,2.412,2.645,3.289c1.493,1.126,3.088,2.072,4.814,2.777
	c2.328,0.952,4.691,1.8,7.172,2.283c1.825,0.355,3.623,0.921,5.462,1.088c3.489,0.316,6.936,0.83,10.361,1.541
	c1.172,0.243,2.382,0.328,3.58,0.41c3.163,0.213,6.326,0.387,9.491,0.571c0.326,0.02,0.658,0.021,0.982-0.008
	c2.938-0.271,5.873-0.551,8.81-0.825c1.415-0.131,2.828-0.338,4.242-0.36c1.985-0.032,3.916-0.349,5.826-0.837
	c1.692-0.433,3.355-1.002,5.066-1.325c1.74-0.327,3.354-0.963,4.978-1.608c2.055-0.817,3.974-1.81,5.301-3.687
	c0.31-0.438,0.8-0.743,1.188-1.128c0.816-0.812,1.21-1.83,1.241-2.954c0.067-2.401-1.005-4.229-3.087-5.365
	c-2.305-1.259-4.713-2.284-7.341-2.729c-1.07-0.181-2.112-0.544-3.161-0.839c-0.386-0.108-0.716-0.665-0.611-1.022
	c0.398-1.361,0.809-2.723,1.219-4.081c0.032-0.101,0.121-0.181,0.166-0.278c0.125-0.264,0.62-0.417,0.809-0.206
	c2.033,2.283,4.39,2.043,6.864,0.893c0.1-0.046,0.192-0.105,0.287-0.158c1.104-0.59,1.641-2.588,1.316-3.462
	c-0.075-0.199-0.194-0.398-0.343-0.549c-0.306-0.309-0.649-0.583-0.972-0.875c-0.259-0.236-0.181-0.553,0.192-0.726
	c0.794-0.366,1.582-0.743,2.391-1.07c1.844-0.747,3.524-1.792,5.04-3.038C93.914,53.67,95.383,49.017,95.245,43.727z M59.832,15.726
	c0.324-0.098,0.644-0.235,0.977-0.28c0.784-0.103,1.574-0.163,1.667-0.172c2.836-0.088,4.664,0.593,6.285,2.026
	c2.073,1.832,3.814,3.861,4.717,6.526c0.251,0.746,0.604,1.455,0.856,2.201c0.026,0.076,0.004,0.199-0.042,0.314
	c-0.061,0.074-0.102,0.135-0.109,0.168c-0.001,0.006-0.005,0.014-0.007,0.02c-0.023,0.027-0.048,0.058-0.072,0.07
	c-0.697,0.367-1.407,0.72-2.149,0.968c-0.236,0.078-0.594-0.165-0.88-0.298c-0.071-0.032-0.091-0.198-0.12-0.307
	c-0.64-2.424-2.436-3.795-4.569-4.7c-1.803-0.765-3.43-1.752-4.892-3.014c-0.767-0.659-1.423-1.45-2.091-2.214
	C58.981,16.551,59.217,15.907,59.832,15.726z M19.417,26.445c0.322-1.156,1.027-2.025,2.021-2.647
	c0.872-0.548,1.812-0.944,2.842-1.116c2.58-0.432,5.152-0.92,7.737-1.316c1.132-0.176,2.221-0.443,3.302-0.824
	c1.93-0.679,3.327-1.916,4.241-3.729c0.92-1.822,1.883-3.623,2.532-5.568c0.114-0.343,0.592-0.498,0.809-0.308
	c0.254,0.224,0.52,0.438,0.759,0.678c1.124,1.13,2.223,2.284,3.363,3.396c1.093,1.065,1.825,2.316,2.14,3.809
	c0.142,0.666,0.213,1.368,0.731,1.871c0.117,0.114,0.393,0.093,0.59,0.078c0.08-0.006,0.206-0.156,0.211-0.249
	c0.095-1.264-0.035-2.495-0.609-3.646c-0.355-0.713-0.746-1.407-1.11-2.115c-0.237-0.456,0.021-0.924,0.499-0.982
	c2.027-0.248,3.832,0.277,5.445,1.512c1.182,0.905,2.221,1.955,3.1,3.158c1.5,2.052,3.401,3.677,5.513,5.051
	c0.947,0.617,1.996,1.078,3.001,1.609c1.134,0.596,2.089,1.365,2.611,2.586c0.116,0.273-0.018,0.754-0.253,0.999
	c-0.742,0.216-1.492,0.396-2.256,0.511c-0.549,0.053-1.104,0.071-1.669,0.041c-2.384-0.127-4.775-0.188-7.387,0.102
	c-2.047,0.079-4.321,0.168-6.597,0.252c-0.229,0.009-0.46,0.03-0.684-0.004c-3.818-0.585-7.731-0.474-11.479-1.564
	c-2.315-0.674-4.709-0.826-7.093-0.973c-1.005-0.062-2.036,0.164-3.049,0.31c-2.609,0.374-5.22,0.348-7.836,0.112
	c-0.334-0.03-0.66-0.139-0.988-0.214C19.578,27.197,19.343,26.709,19.417,26.445z M30.933,89.683
	c-3.929-0.449-7.669-1.611-11.479-2.542c-3.439-0.839-6.609-2.226-9.626-4.008c-0.839-0.495-1.603-1.128-2.349-1.76
	c-0.85-0.72-1.02-1.727-0.639-2.692c1.088-2.768,2.865-4.787,5.89-5.661c3.474-1.003,6.946-1.868,10.583-1.888
	c0.17-0.001,0.408,0.152,0.492,0.302c0.132,0.239-0.015,0.431-0.298,0.464c-1.522,0.184-2.969,0.671-4.445,1.057
	c-2.289,0.597-3.795,2.048-4.842,4.083c-0.321,0.625-0.315,1.251-0.065,1.894c0.738,1.896,1.974,3.396,3.707,4.437
	c5.077,3.043,9.321,4.51,15.315,5.344c1.717,0.239,3.416,0.534,5.565,1.476C35.689,90.209,33.321,89.954,30.933,89.683z
	 M48.959,90.785c-0.311,0.041-0.63,0.011-1.129,0.011c-0.132-0.008-0.447-0.018-0.762-0.045c-0.283-0.024-0.405-0.14-0.304-0.279
	c0.052-0.073,0.177-0.127,0.27-0.129c0.63-0.012,1.26-0.024,1.888,0c0.196,0.008,0.386,0.127,0.578,0.196
	C49.319,90.624,49.148,90.76,48.959,90.785z M48.475,87.569c0.162,0-0.058-0.021-0.274,0.003c-3.394,0.381-6.766-0.108-10.147-0.264
	c-2.956-0.136-5.859-0.651-8.755-1.205c-0.531-0.102-1.04-0.329-1.549-0.524c-1.018-0.394-2.024-0.819-3.044-1.207
	c-1.444-0.55-2.77-1.301-3.957-2.284c-1.092-0.904-2.169-1.83-3.236-2.766c-0.24-0.212-0.432-0.49-0.609-0.762
	c-0.542-0.829-0.263-2.122,0.593-2.586c0.572-0.31,1.174-0.594,1.795-0.775c1.998-0.586,4.058-0.872,6.115-1.146
	c0.512-0.067,1.135,0.284,1.299,0.804c0.192,0.617,0.339,1.257,0.421,1.897c0.093,0.729,0.531,0.841,1.131,0.789
	c0.104-0.009,0.214,0.038,0.319,0.069c0.318,0.099,0.539,0.483,0.365,0.742c-0.243,0.356-0.677,0.691-0.417,1.136
	c0.199,0.345,0.585,0.632,0.952,0.817c0.679,0.338,1.383,0.666,2.114,0.851c2.009,0.509,4.013,1.035,6.084,1.273
	c1.518,0.176,3.008,0.562,4.524,0.765c1.623,0.217,3.256,0.429,4.889,0.472c4.486,0.118,8.966-0.051,13.405-0.744
	c1.937-0.303,3.852-0.799,5.734-1.35c1.385-0.405,2.192-1.413,2.103-2.945c-0.043-0.764,0.318-1.152,0.973-1.503
	c0.697-0.377,1.313-0.722,2.134-0.417c1.126,0.419,2.287,0.741,3.407,1.174c0.604,0.233,1.177,0.577,1.727,0.93
	c1.194,0.766,1.284,1.733,0.313,2.688c-1.272,1.252-2.773,2.127-4.458,2.678c-1.245,0.407-2.497,0.823-3.774,1.104
	C62.131,86.712,55.582,87.92,48.475,87.569z M32.025,79.201c0.037-0.133,0.335-0.299,0.49-0.274c1.827,0.3,3.661,0.57,5.464,0.974
	c1.925,0.427,3.867,0.676,5.826,0.745c1.951,0.07,3.884,0.299,5.862,0.18c2.169-0.129,4.348-0.215,6.523-0.323
	c2.191-0.109,4.318-0.525,6.413-1.157c1.04-0.313,2.101-0.567,3.153-0.84c0.304-0.078,0.749,0.161,0.761,0.401
	c0.019,0.363-0.181,0.648-0.478,0.786c-1.594,0.741-3.297,1.113-5.01,1.447c-3.435,0.67-6.909,0.916-10.405,0.873
	c-0.435-0.005-0.871-0.001-1.851-0.001c-3.511,0.235-7.503-0.378-11.494-0.94c-1.714-0.242-3.442-0.558-5.019-1.352
	C32.121,79.649,31.984,79.346,32.025,79.201z M74.089,73.875c3.325,0.684,6.52,1.741,9.459,3.474
	c0.453,0.267,0.886,0.653,1.18,1.084c1.05,1.531,1.036,2.429-0.089,3.814c-1.402,1.726-3.195,2.955-5.237,3.811
	c-0.603,0.253-1.225,0.498-1.862,0.615c-2.688,0.497-5.233,1.515-7.894,2.089c-3.41,0.737-6.842,1.362-10.35,1.479
	c-1.522,0.051-3.036,0.319-4.557,0.442c-0.527,0.041-1.066-0.047-1.598-0.102c-0.086-0.009-0.234-0.16-0.222-0.215
	c0.041-0.178,0.129-0.477,0.228-0.489c1.188-0.149,2.376-0.304,3.571-0.362c2.402-0.118,4.764-0.407,7.104-1.013
	c1.573-0.406,3.221-0.563,4.846-0.728c3.502-0.354,6.497-1.711,8.917-4.289c1.815-1.935,1.813-4.479,0.015-6.467
	c-0.597-0.659-1.309-1.155-2.103-1.529c-1.07-0.504-2.154-0.979-3.233-1.465c-0.025,0.01-0.052,0.015-0.076,0.026l0.126-0.154
	l-0.08,0.114l0.03,0.014C72.841,73.788,73.468,73.748,74.089,73.875z M74.429,52.188c-0.658,4.212-1.364,8.42-2.181,12.605
	c-0.438,2.253-1.241,4.413-2.361,6.445c-0.687,1.242-1.284,2.533-1.915,3.808c-0.307,0.625-0.813,1.062-1.44,1.271
	c-3.016,0.998-6.076,1.844-9.238,2.188c-3.268,0.356-6.546,0.42-9.828,0.104c-0.977-0.094-1.966-0.125-2.949-0.111
	c-3.972,0.058-7.826-0.726-11.665-1.604c-0.427-0.097-0.859-0.21-1.25-0.396c-0.378-0.181-0.796-0.397-1.046-0.716
	c-2.395-3.051-2.715-3.587-3.957-7.47c-1.129-3.537-2.248-7.078-2.971-10.736c-0.359-1.817-0.95-3.592-1.511-5.363
	c-0.664-2.091-1.1-4.23-1.545-6.371c-0.356-1.713-0.749-3.418-1.053-5.14c-0.513-2.906-0.966-5.825-1.087-8.78
	c-0.019-0.433,0.049-0.869,0.084-1.305c0.019-0.229,0.436-0.599,0.682-0.591c0.652,0.016,1.311,0.002,1.957,0.08
	c1.411,0.169,2.824,0.348,4.222,0.596c4.102,0.73,8.262,0.863,12.399,1.23c4.033,0.359,8.078,0.504,12.124,0.59
	c0.984,0.021,1.972,0.072,2.947,0.198c2.185,0.284,4.359,0.312,6.54-0.02c0.214-0.032,0.435-0.046,0.652-0.062
	c0.62-0.045,1.102,0.313,1.143,0.873c0.048,0.653,0.065,1.31,0.106,1.963c0.195,3.164,0.388,6.329,0.6,9.494
	c0.022,0.316,0.135,0.646,0.283,0.928c0.086,0.162,0.32,0.271,0.511,0.346c0.215,0.085,0.761-0.232,0.783-0.444
	c0.056-0.534,0.183-1.081,0.117-1.603c-0.464-3.703-0.289-7.425-0.369-11.139c-0.004-0.209,0.084-0.424,0.155-0.627
	c0.11-0.32,0.386-0.451,0.675-0.514c0.248-0.002,0.497-0.004,0.744-0.006c0.457,0.105,0.78,0.418,0.813,0.861
	c0.058,0.761,0.09,1.525,0.101,2.29c0.058,4.156,0.108,8.313,0.164,12.771c0.326,3.967-0.067,8.227-0.104,12.49
	c-0.006,0.542-0.002,1.085,0.019,1.627c0.012,0.301,0.17,0.4,0.418,0.305c0.095-0.038,0.257-0.046,0.281-0.109
	c0.19-0.505,0.476-1.011,0.511-1.534c0.298-4.356,0.948-8.685,0.814-13.079c-0.142-4.59-0.065-9.188-0.082-13.781
	c0-0.437-0.01-0.877,0.037-1.309c0.027-0.248,0.103-0.478,0.237-0.664c0.882-0.111,1.75-0.3,2.603-0.626
	c0.848-0.325,1.733-0.554,2.577-0.89c0.629-0.251,1.258-0.547,1.817-0.924c0.081-0.055,0.156-0.113,0.23-0.174
	c0.263,0.113,0.449,0.369,0.454,0.758c0.008,0.655,0.012,1.313-0.013,1.968c-0.062,1.638-0.095,3.28-0.218,4.915
	C75.061,41.929,75.223,47.094,74.429,52.188z M85.773,57.18c-0.03-0.011-0.059-0.015-0.089-0.023
	c-0.801,0.21-1.413,0.757-2.053,1.265c-1.276,1.015-2.566,1.995-4.197,2.424c-0.373,0.1-0.691,0.492-0.975,0.805
	c-0.116,0.127-0.138,0.42-0.082,0.601c0.05,0.167,0.246,0.381,0.404,0.406c0.425,0.067,0.865,0.017,1.294,0.06
	c0.946,0.096,1.519,0.892,1.334,1.839c-0.062,0.319-0.164,0.631-0.233,0.948c-0.306,1.422-2.393,2.128-3.671,0.856
	c-1.782-1.771-1.817-3.708-0.019-5.376c0.633-0.588,1.342-1.109,2.064-1.585c0.902-0.595,1.834-1.152,2.792-1.649
	c1.042-0.54,2.132-0.967,3.341-0.593c0.028-0.008,0.054-0.021,0.082-0.027c-0.001-0.015-0.003-0.029-0.005-0.045
	c-0.167-0.056-0.18-0.097-0.015-0.121c0.006,0.04,0.011,0.08,0.015,0.121c0.023,0.008,0.041,0.016,0.071,0.023
	c-0.023,0.005-0.043,0.016-0.066,0.021C85.77,57.146,85.771,57.162,85.773,57.18z M86.858,53.373
	c-1.643,0.835-2.964,2.262-4.854,2.641c-1.871,1.097-3.922,1.883-5.627,3.271c-0.136,0.112-0.433,0.141-0.599,0.072
	c-0.148-0.061-0.318-0.315-0.309-0.474c0.046-0.763,0.107-1.526,0.242-2.277c0.652-3.658,0.852-7.368,1.295-11.049
	c0.117-0.979,0.177-1.95,0.816-2.782c0.19-0.248,0.306-0.586,0.365-0.9c0.188-1.009,0.603-1.9,1.479-2.447
	c1.107-0.691,2.241-1.314,3.631-1.345c1.573-0.034,3.025,0.24,4.375,1.069c1.396,0.858,2.232,2.063,2.354,3.707
	c0.056,0.76,0.01,1.527,0.01,2.29c0.013,1.196,0.119,2.392-0.25,3.571c-0.503,1.598-1.407,2.943-2.449,4.217
	C87.203,53.104,87.045,53.278,86.858,53.373z M93.163,45.601c-0.08,0.757-0.269,1.508-0.296,2.265
	c-0.071,1.943-0.798,3.606-2.031,5.069c-0.348,0.412-0.736,0.788-1.122,1.165c-0.053,0.05-0.211,0.039-0.287-0.003
	c-0.073-0.038-0.162-0.194-0.139-0.234c0.285-0.46,0.591-0.907,0.892-1.358c1.258-1.848,2.013-3.859,1.98-6.13
	c-0.011-0.873,0.063-1.749,0.036-2.622c-0.099-2.962-1.376-5.227-4.031-6.645c-0.287-0.154-0.599-0.276-0.865-0.463
	c-1.538-1.08-3.284-1.168-5.036-0.93c-0.837,0.113-1.629,0.576-2.439,0.883c-0.599,0.229-1.195,0.467-1.799,0.68
	c-0.037,0.012-0.173-0.145-0.201-0.239c-0.188-0.657,0.123-1.462,0.65-1.683c1.02-0.428,2.072-0.696,3.189-0.607
	c1.414,0.112,2.838,0.164,4.24,0.369c2.795,0.41,4.801,2.005,6.1,4.457c0.72,1.358,1.038,2.875,1.225,4.4
	C93.294,44.506,93.22,45.061,93.163,45.601z"/>
</svg>
