<?xml version="1.0" encoding="utf-8"?>
<!-- Generator: Adobe Illustrator 16.0.0, SVG Export Plug-In . SVG Version: 6.00 Build 0)  -->
<!DOCTYPE svg PUBLIC "-//W3C//DTD SVG 1.1//EN" "http://www.w3.org/Graphics/SVG/1.1/DTD/svg11.dtd">
<svg version="1.1" id="Layer_1" xmlns="http://www.w3.org/2000/svg" xmlns:xlink="http://www.w3.org/1999/xlink" x="0px" y="0px"
	 width="100px" height="100px" viewBox="0 0 100 100" enable-background="new 0 0 100 100" xml:space="preserve">
<path fill-rule="evenodd" clip-rule="evenodd" fill="#F8BE39" d="M57.403,95c-0.728-0.058-1.405-0.016-2.031-0.176
	c-2.124-0.549-4.313-0.688-6.46-1.057c-0.646-0.11-1.29-0.26-1.904-0.476c-2.056-0.726-4.105-1.481-6.148-2.242
	c-0.406-0.153-0.814-0.339-1.169-0.584c-0.543-0.376-1.063-0.861-1.181-1.521c-0.387-2.163-1.557-4.059-2.004-6.207
	c-0.421-2.029-1.038-4.018-1.576-6.021c-0.34-1.265-0.659-2.538-1.048-3.79c-0.912-2.918-1.959-5.796-2.601-8.797
	c-0.167-0.774-0.585-1.381-1.244-1.855c-2.747-1.979-3.431-4.931-3.693-8.049c-0.042-0.526,0.068-1.102,0.247-1.605
	c0.747-2.106,1.924-3.918,3.843-5.151c1.073-0.689,1.184-0.55,0.628-1.745c-0.187-0.396-0.363-0.796-0.562-1.185
	c-2.339-4.57-4.498-9.235-7.252-13.583c-0.35-0.552-0.657-1.137-0.935-1.729c-1.062-2.277-2.119-4.556-3.139-6.85
	c-0.309-0.697-0.505-1.444-0.727-2.175c-0.136-0.448-0.031-0.911,0.285-1.214c0.549-0.524,1.115-1.087,1.78-1.421
	c1.261-0.636,2.593-1.141,3.911-1.664c0.56-0.224,1.09-0.008,1.506,0.373c0.316,0.292,0.616,0.639,0.805,1.019
	c0.484,0.976,0.984,1.958,1.326,2.986c0.315,0.949,0.708,1.836,1.264,2.651c2.348,3.44,4.144,7.185,6.008,10.891
	c0.69,1.374,1.543,2.622,2.414,3.871c0.234,0.336,0.809,0.471,1.174,0.26c0.563-0.325,1.133-0.654,1.641-1.056
	c0.232-0.187,0.365-0.541,0.179-0.887c-0.468-0.863-0.945-1.723-1.399-2.594c-1.573-2.997-3.168-5.97-4.164-9.244
	c-0.599-1.975-1.504-3.866-2.377-5.748c-0.739-1.59-1.403-3.195-1.886-4.883c-0.268-0.944-0.58-1.883-0.975-2.78
	c-0.273-0.625-0.312-1.246-0.36-1.903c-0.171-2.358,2.344-4.08,4.348-3.84c2.523,0.305,4.313,1.429,4.918,4.054
	c0.367,1.598,0.781,3.184,1.203,4.768c0.731,2.744,1.444,5.495,2.239,8.221c0.396,1.357,0.948,2.669,1.452,3.994
	c0.179,0.474,0.945,0.828,1.36,0.626c1.582-0.771,3.227-1.363,4.972-1.588c1.072-0.14,2.188-0.297,3.255-0.181
	c4.9,0.529,9.294,2.239,12.971,5.653c1.454,1.35,2.798,2.741,3.828,4.445c0.575,0.952,0.969,1.958,1.188,3.03
	c0.106,0.521,0.085,1.083,0.027,1.618c-0.086,0.756-0.292,1.5-0.383,2.256c-0.053,0.441,0.081,0.896,0.478,1.153
	c1.688,1.095,2.895,2.649,4.043,4.249c0.308,0.43,0.572,0.944,0.677,1.458c0.284,1.386,0.48,2.791,0.688,4.191
	c0.226,1.517,0.42,3.012,1.482,4.262c0.404,0.473,0.545,1.179,0.765,1.792c0.363,1.02,0.668,2.041,1.473,2.87
	c0.327,0.337,0.391,1.004,0.424,1.531c0.068,1.128-0.412,2.141-0.919,3.105c-1.318,2.527-2.284,5.196-3.248,7.865
	c-0.63,1.746-1.303,3.485-1.79,5.272c-0.757,2.759-1.968,5.322-3.136,7.91c-0.267,0.59-0.591,1.173-0.736,1.796
	c-0.243,1.026-0.778,1.778-1.682,2.303c-0.848,0.494-1.666,1.044-2.527,1.516c-0.474,0.258-0.993,0.493-1.518,0.59
	c-2.255,0.416-4.523,0.786-6.788,1.153C58.212,95.003,57.769,94.981,57.403,95z M37.94,21.806c0.239,0.198,0.58,0.35,0.696,0.604
	c0.492,1.09,0.91,2.213,1.369,3.319c0.542,1.307,1.114,2.598,1.965,3.743c0.155,0.21,0.375,0.268,0.578,0.101
	c0.157-0.128,0.302-0.313,0.361-0.501c0.064-0.195,0.097-0.475,0.004-0.633c-1.796-3.055-2.64-6.457-3.592-9.813
	c-0.655-2.308-1.264-4.64-1.699-6.998c-0.482-2.609-1.188-2.626-3.32-2.37c-0.642,0.077-1.273,0.276-1.903,0.447
	c-0.461,0.125-0.745,0.587-0.604,0.984c0.585,1.643,1.118,3.31,1.789,4.917c1.56,3.724,3.163,7.431,4.802,11.121
	c0.799,1.793,1.724,3.53,2.595,5.29c0.046,0.094,0.122,0.2,0.211,0.242c0.162,0.076,0.344,0.107,0.515,0.158
	c0.027-0.2,0.148-0.454,0.07-0.595c-1.75-3.177-2.799-6.615-3.769-10.09L37.94,21.806z M30.673,35.592
	c0.202,0.004,0.501-0.077,0.595,0.025c0.43,0.484,0.863,0.985,1.184,1.542c0.708,1.227,1.347,2.493,2.018,3.738
	c0.138,0.257,0.652,0.305,0.846,0.09c0.146-0.162,0.291-0.325,0.424-0.498c0.513-0.655,0.684-1.343,0.261-2.123
	c-0.883-1.631-1.754-3.271-2.631-4.907c-1.343-2.501-2.628-5.035-4.049-7.49c-1.098-1.895-2.13-3.81-2.95-5.841
	c-0.161-0.393-0.416-0.75-0.647-1.11c-0.049-0.078-0.237-0.162-0.282-0.131c-0.252,0.177-0.529,0.353-0.708,0.594
	c-0.764,1.027-1.703,1.656-3.042,1.571c-0.293-0.02-0.456,0.408-0.333,0.762c0.937,2.689,2.249,5.213,3.563,7.724
	c1.721,3.287,3.573,6.504,5.118,9.883c0.907,1.983,1.891,3.93,2.863,5.884c0.14,0.28,0.398,0.508,0.626,0.738
	c0.054,0.054,0.21,0.031,0.311,0.008c0.082-0.021,0.204-0.087,0.216-0.152c0.249-1.302,0.321-2.57-0.346-3.817
	c-0.566-1.056-1.001-2.182-1.491-3.277c-0.492-1.094-0.982-2.188-1.472-3.282L30.673,35.592z M41.852,64.291
	c0.041,0.011,0.082,0.022,0.124,0.034c-0.072-0.018-0.144-0.033-0.215-0.05c0.317-0.434-0.033-0.809-0.09-1.215
	c-0.112-0.774,0.481-1.549,1.256-1.595c0.278-0.017,0.601,0.177,0.846,0.355c0.15,0.112,0.22,0.365,0.276,0.567
	c0.231,0.823,0.202,1.875,0.927,2.342c0.693,0.447,1.645,0.539,2.5,0.674c0.854,0.135,1.73,0.156,2.601,0.187
	c2.392,0.087,4.797,0.072,7.186,0.252c2.83,0.216,5.648,0.601,8.447-0.19c3.225,0.087,6.244-0.783,9.185-2.003
	c0.198-0.082,0.424-0.095,0.638-0.147c0.566-0.137,0.944-0.511,1.23-0.997c0.764-1.294,0.814-2.681,0.461-4.092
	c-0.148-0.581-0.912-0.742-1.303-0.297c-0.734,0.831-1.582,1.523-2.585,1.967c-1.794,0.794-3.611,1.532-5.437,2.247
	c-1.027,0.404-2.105,0.546-3.218,0.438c-3.145-0.305-6.292-0.592-9.435-0.905c-0.57-0.056-1.067-0.003-1.513,0.4
	c-0.237,0.212-0.522,0.404-0.82,0.512c-0.896,0.331-2.033-0.167-2.346-1.125c-0.188-0.572-0.429-1.005-0.986-1.176
	c-2.954-0.916-5.527-2.586-8.134-4.163c-2.544-1.536-4.778-3.418-6.123-6.194c-0.846-1.747-1.056-1.654-2.801-0.964
	c-0.937,0.372-1.703,0.967-2.16,1.901c-0.144,0.292-0.259,0.613-0.455,0.867c-0.793,1.022-0.85,2.175-0.773,3.41
	c0.103,1.707,1.003,3.09,1.693,4.561c0.171,0.366,0.568,0.662,0.919,0.902c1.442,0.988,2.936,1.842,4.673,2.283
	C38.217,63.534,39.995,64.048,41.852,64.291z M67.673,35.395l0.114,0.111c-0.387-1.201-1.268-2.003-2.22-2.741
	c-1.382-1.075-2.91-1.917-4.547-2.525c-1.529-0.567-3.1-1.015-4.64-1.545c-2.313-0.797-4.681-0.907-7.088-0.646
	c-0.979,0.105-1.892,0.444-2.811,0.791c-1.672,0.629-3.262,3.123-2.607,5.074c0.07,0.204,0.072,0.43,0.121,0.642
	c0.28,1.218,0.878,2.2,1.994,2.85c0.655,0.381,1.304,0.799,1.888,1.281c1.284,1.06,2.759,1.711,4.303,2.276
	c3.079,1.127,6.255,1.854,9.497,2.275c1.388,0.18,2.82,0.068,4.228,0.024c1.13-0.033,2.082-0.589,2.967-1.234
	c0.251-0.181,0.478-0.472,0.583-0.76c0.679-1.856,0.563-3.63-0.698-5.228C68.491,35.698,68.145,35.422,67.673,35.395z
	 M60.991,59.646c0,0,0-0.004,0-0.008c1.641,0,3.275,0.003,4.913,0c1.889-0.004,3.657-0.562,5.394-1.228
	c1.038-0.399,1.888-1.1,2.628-1.909c0.925-1.002,1.386-2.292,1.437-3.574c0.049-1.396-0.298-2.833-1.132-4.03
	c-0.621-0.891-1.341-1.719-2.063-2.533c-0.589-0.666-1.365-1.064-2.213-1.346c-0.536-0.179-1.035-0.208-1.584-0.006
	c-0.911,0.342-1.833,0.754-2.785,0.891c-1.614,0.234-3.256,0.311-4.885,0.005c-1.289-0.239-2.597-0.391-3.862-0.704
	c-4.37-1.075-8.632-2.398-12.092-5.485c-0.644-0.575-1.363-0.602-2.132-0.332c-2.152,0.759-3.577,2.437-5.035,4.047
	c-0.35,0.388-0.622,0.944-0.701,1.457c-0.263,1.736-0.347,3.453,0.679,5.055c0.826,1.289,1.528,2.646,2.871,3.51
	c2.663,1.715,5.466,3.168,8.354,4.458c0.302,0.132,0.61,0.239,0.926,0.334c3.251,0.981,6.532,1.75,9.975,1.401
	C60.115,59.609,60.557,59.646,60.991,59.646z M56.118,79.698c0.031,0.002,0.064,0.004,0.1,0.006c-0.045,0.43-0.094,0.86-0.128,1.293
	c-0.249,3.257-0.189,6.516-0.078,9.775c0.02,0.553,0.496,0.971,1.06,1.017c1.769,0.142,3.452-0.331,5.152-0.673
	c0.632-0.125,0.898-0.548,1.004-1.118c0.581-3.207,1.162-6.417,1.739-9.624c0.118-0.642,0.173-1.302,0.365-1.918
	c0.908-2.907,1.24-5.961,2.263-8.837c0.039-0.101,0.043-0.214,0.055-0.322c0.011-0.107,0.006-0.215,0.018-0.322
	c0.06-0.411-0.36-0.872-0.772-0.827c-1.288,0.141-2.577,0.39-3.871,0.403c-1.41,0.015-2.821-0.19-4.23-0.294
	c-0.434-0.033-0.868-0.061-1.302-0.073c-0.955-0.024-1.303,0.359-1.309,1.411C56.159,72.962,56.142,76.331,56.118,79.698z
	 M54.485,75.247c-0.021-0.001-0.048-0.003-0.073-0.003c0-2.069,0.006-4.139-0.006-6.208c-0.004-0.387-0.438-0.844-0.807-0.915
	c-0.319-0.062-0.653-0.196-0.96-0.15c-2.094,0.321-4.12-0.085-6.154-0.488c-0.633-0.125-1.294-0.13-1.941-0.159
	c-0.381-0.018-0.883,0.476-0.844,0.834c0.192,1.728,0.35,3.464,0.616,5.183c0.565,3.661,1.542,7.25,1.942,10.938
	c0.153,1.408,0.305,2.816,0.46,4.223c0.187,1.685,0.696,2.228,2.417,2.584c0.108,0.022,0.216,0.053,0.324,0.062
	c1.188,0.1,2.382,0.205,3.576,0.288c0.398,0.028,0.811-0.403,0.826-0.844c0.015-0.542,0.015-1.086,0.022-1.631
	c0.027-2.07-0.004-4.143,0.092-6.21C54.093,80.248,54.311,77.748,54.485,75.247z M44.283,86.81c-0.208-1.779-0.342-2.972-0.49-4.163
	c-0.564-4.544-1.581-9.029-1.785-13.622c-0.025-0.536-0.155-1.079-0.318-1.593c-0.169-0.534-0.527-0.946-1.11-1.097
	c-1.687-0.438-3.374-0.881-5.065-1.307c-0.206-0.052-0.432-0.02-0.647-0.031c-0.243-0.014-0.595,0.404-0.56,0.678
	c0.055,0.43,0.065,0.873,0.187,1.283c0.96,3.241,1.913,6.485,2.926,9.709c0.557,1.775,1.017,3.562,1.31,5.399
	c0.173,1.076,0.433,2.139,0.7,3.194c0.192,0.753,0.583,1.419,1.205,1.906c0.946,0.743,1.965,1.365,3.155,1.631
	c0.134,0.03,0.464-0.194,0.472-0.315C44.306,87.732,44.283,86.977,44.283,86.81z M74.083,67.453c-0.305,0-0.744-0.031-1.176,0.007
	c-0.76,0.066-1.517,0.16-2.269,0.271c-0.601,0.088-0.954,0.466-1.1,1.048c-0.08,0.317-0.16,0.633-0.239,0.952
	c-0.553,2.22-0.973,4.462-1.342,6.724c-0.632,3.872-1.438,7.715-2.14,11.577c-0.092,0.52-0.016,1.074,0.02,1.609
	c0.018,0.235,0.252,0.379,0.493,0.279c0.595-0.252,1.173-0.545,1.75-0.838c1.019-0.522,1.696-1.341,2.077-2.418
	c0.763-2.158,1.534-4.313,2.304-6.469c0.477-1.335,0.916-2.685,1.46-3.992c1.044-2.518,2.151-5.007,3.229-7.511
	c0.53-1.234,0.246-1.673-0.99-1.524C75.51,67.247,74.864,67.345,74.083,67.453z M79.327,63.765c-0.06-0.185-0.066-0.292-0.122-0.37
	c-0.106-0.154-0.272-0.125-0.447,0.081c-0.126,0.154-0.305,0.305-0.346,0.483c-0.031,0.159,0.095,0.352,0.151,0.531
	c0.09-0.033,0.206-0.043,0.263-0.105C79.015,64.173,79.182,63.946,79.327,63.765z M70.57,51.652
	c-0.062-0.314-0.153-0.625-0.208-0.942c-0.144-0.795-0.686-1.217-1.671-1.025c-0.549,0.108-1.042,0.289-1.225,0.889
	c-0.167,0.558-0.063,1.116,0.324,1.501c0.367,0.365,0.854,0.639,1.336,0.857c0.501,0.229,1.415-0.42,1.447-1.154
	C70.574,51.865,70.592,51.754,70.57,51.652z M55.664,53.677c-0.245,0.195-0.428,0.485-0.589,0.763
	c-0.296,0.506-0.162,1.027,0.346,1.414c0.257,0.195,0.534,0.372,0.818,0.517c0.479,0.242,1.117,0.061,1.438-0.388
	c0.414-0.574,0.499-1.19,0.192-1.838c-0.263-0.554-0.768-0.717-1.454-0.805C56.233,53.418,55.9,53.491,55.664,53.677z
	 M42.837,51.306c0.329-0.112,0.642-0.586,0.655-1.021c0.021-0.659,0.006-1.327-0.663-1.693c-0.517-0.283-1.37-0.068-1.786,0.38
	c-0.377,0.407-0.398,1.461,0.041,1.783c0.419,0.308,0.931,0.493,1.32,0.688C42.631,51.372,42.734,51.34,42.837,51.306z
	 M55.152,47.442c-0.169-0.466-0.85-0.756-1.364-0.633c-0.77,0.181-1.311,0.672-1.316,1.236c-0.002,0.207,0.025,0.455,0.139,0.613
	c0.462,0.641,1.096,1.016,1.893,1.122c0.395,0.053,0.84-0.315,0.867-0.754c0.008-0.106,0.023-0.214,0.055-0.515
	C55.364,48.271,55.296,47.843,55.152,47.442z M59.839,34.641c-0.112-0.277-0.326-0.56-0.571-0.729
	c-0.818-0.563-2.078,0.068-2.152,1.047c-0.088,1.142,0.778,2.131,1.872,2.105c0.181-0.004,0.428-0.151,0.52-0.308
	c0.21-0.355,0.336-0.758,0.463-1.054C59.925,35.265,59.952,34.923,59.839,34.641z M67.783,35.504
	c-0.61-0.155-1.186-0.462-1.856-0.161c-0.668,0.299-0.85,1.008-0.34,1.516c0.402,0.4,0.859,0.653,1.423,0.468
	c0.618-0.203,0.669-0.738,0.647-1.292c-0.012-0.212,0.008-0.427,0.016-0.64C67.673,35.395,67.787,35.506,67.783,35.504z
	 M35.167,55.152c0.083-0.342-0.188-0.826-0.578-1.053c-0.75-0.438-1.528-0.404-2.053,0.179c-0.185,0.208-0.305,0.585-0.27,0.861
	c0.095,0.743,0.783,1.22,1.633,1.236C34.523,56.386,34.979,55.941,35.167,55.152z M30.681,35.586
	c0.509-1.103,0.103-1.962-0.721-2.687c-0.103-0.089-0.368,0.006-0.556,0.017c0,0,0.078-0.07,0.072-0.065
	c0.183,1.007,0.727,1.837,1.271,2.67C30.747,35.521,30.673,35.592,30.681,35.586z M28.259,30.86c0.266,0.749,0.629,1.438,1.217,1.99
	c0.006-0.005-0.072,0.065-0.067,0.061c0.227-1.219-0.022-1.613-1.235-1.975L28.259,30.86z M28.259,30.86l-0.084-0.202
	c0,0,0.006,0.269,0.003,0.274C28.173,30.936,28.259,30.86,28.259,30.86z M37.696,19.525c-0.173,0.777-0.29,1.545,0.307,2.213
	c0.006-0.006-0.063,0.068-0.057,0.062c0.237-0.794,0.023-1.512-0.344-2.206L37.696,19.525z M37.597,19.6
	c-0.076-0.061-0.171-0.113-0.212-0.193c-0.155-0.305-0.265-0.309-0.206-0.027c0.016,0.08,0.336,0.099,0.517,0.145
	C37.696,19.525,37.603,19.594,37.597,19.6z"/>
</svg>
