<?xml version="1.0" encoding="utf-8"?>
<!-- Generator: Adobe Illustrator 16.0.0, SVG Export Plug-In . SVG Version: 6.00 Build 0)  -->
<!DOCTYPE svg PUBLIC "-//W3C//DTD SVG 1.1//EN" "http://www.w3.org/Graphics/SVG/1.1/DTD/svg11.dtd">
<svg version="1.1" id="Layer_1" xmlns="http://www.w3.org/2000/svg" xmlns:xlink="http://www.w3.org/1999/xlink" x="0px" y="0px"
	 width="240px" height="100px" viewBox="0 0 240 100" enable-background="new 0 0 240 100" xml:space="preserve">
<g>
	<path fill-rule="evenodd" clip-rule="evenodd" fill="#F8BE39" d="M129.343,19.371c0.13-0.205,0.658-0.253,0.836-0.057
		c0.208,0.231,0.469,0.461,0.557,0.741c0.505,1.623,1.393,3.005,2.51,4.261c0.316,0.354,0.589,0.749,0.853,1.143
		c0.82,1.217,1.266,2.542,1.107,4.033c-0.072,0.708-0.14,1.417-0.199,2.126c-0.007,0.067,0.059,0.19,0.107,0.202
		c0.133,0.029,0.296,0.053,0.419,0.01c0.551-0.19,0.883-0.653,1.283-1.032c1.217-1.157,2.207-2.48,2.965-3.981
		c0.7-1.397,0.95-2.84,0.479-4.365c-0.117-0.378-0.231-0.758-0.326-1.143c-0.117-0.472,0.283-0.895,0.811-0.929
		c1.143-0.074,2.204,0.243,3.194,0.757c0.865,0.448,1.474,1.214,1.904,2.064c0.303,0.599-0.078,1.237-0.208,1.844
		c-0.297,1.401-0.831,2.718-1.429,4.015c-0.909,1.973-2.11,3.698-3.793,5.095c-0.732,0.604-1.433,1.243-2.223,1.771
		c-0.163,0.107-0.221,0.486-0.107,0.638c0.189,0.249,0.358,0.527,0.592,0.729c0.661,0.566,1.309,1.164,2.038,1.63
		c1.091,0.699,1.566,1.738,1.878,2.908c0.58,2.151,0.586,2.503,0.03,4.658c-0.102,0.381-0.206,0.764-0.342,1.137
		c-0.681,1.86-1.282,3.732-1.263,5.754c0.003,0.623-0.87,1.07-1.443,0.75c-0.618-0.343-1.194-0.765-1.79-1.155
		c-0.169-0.111-0.498-0.008-0.586,0.188c-0.218,0.508-0.433,1.019-0.645,1.53c-1.067,2.554-2.77,4.593-5.055,6.136
		c-1.247,0.84-2.497,1.679-3.87,2.313c-0.645,0.297-1.26,0.678-1.931,0.897c-2.116,0.691-4.276,1.157-6.52,1.141
		c-0.712-0.005-1.425-0.005-2.137-0.021c-2.69-0.063-5.381-0.127-8.073-0.206c-0.551-0.016-1.111-0.05-1.652-0.151
		c-1.871-0.347-3.717-0.767-5.422-1.67c-0.696-0.368-1.452-0.624-2.174-0.953c-0.278-0.128-0.568-0.278-0.791-0.486
		c-0.634-0.594-1.256-1.208-1.845-1.846c-0.866-0.938-1.667-1.953-1.909-3.226c-0.448-2.36-0.444-4.71,0.305-7.038
		c1.08-3.338,2.703-6.413,4.52-9.383c1.072-1.752,1.993-3.604,3.278-5.226c0.144-0.183,0.253-0.407,0.333-0.625
		c0.323-0.918,0.953-1.631,1.521-2.396c1.483-1.989,3.393-3.537,5.29-5.091c0.796-0.651,1.715-1.159,2.738-1.374
		c1.63-0.345,3.291-0.617,4.952-0.448c1.889,0.19,3.768,0.415,5.672,0.34c0.153-0.006,0.309,0.064,0.466,0.079
		c0.707,0.07,0.862,0.016,1.064-0.606c0.332-1.002,0.885-1.85,1.624-2.591c0.391-0.391,0.759-0.808,1.175-1.172
		c0.365-0.319,0.684-0.656,0.896-1.172C129.096,19.775,129.21,19.57,129.343,19.371z M133.598,38.111
		c-0.15-0.365-0.248-0.749-0.355-1.13c-0.169-0.607-0.006-0.907,0.551-1.078c0.599-0.187,1.191-0.4,1.793-0.585
		c1.315-0.404,2.396-1.188,3.431-2.064c0.792-0.67,1.429-1.442,1.999-2.317c1.048-1.599,1.972-3.243,2.484-5.089
		c0.228-0.835,0.403-1.69,0.56-2.544c0.094-0.521-0.355-1.068-0.935-1.17c-0.121-0.021-0.378,0.103-0.384,0.174
		c-0.039,0.549-0.013,1.104-0.039,1.656c-0.065,1.541-0.537,2.956-1.436,4.207c-0.689,0.963-1.445,1.88-2.151,2.835
		c-0.814,1.097-1.934,1.862-2.981,2.689c-0.866,0.686-1.898,1.143-3.083,1.004c-0.332-0.039-0.625,0.088-0.8,0.389
		c-0.254,0.438-0.645,0.678-1.107,0.84c-0.541,0.192-0.909,0.602-1.289,1.01c-1.126,1.218-1.419,2.608-0.938,4.177
		c0.14,0.451,0.286,0.905,0.456,1.346c0.426,1.12,0.725,2.253,0.608,3.472c-0.04,0.404,0.488,0.632,0.859,0.402
		c0.267-0.169,0.556-0.312,0.781-0.527c0.4-0.379,0.758-0.804,0.889-0.945C134.274,42.587,134.532,40.434,133.598,38.111z
		 M124.864,26.982c-0.934-0.316-1.881-0.292-2.75,0.179c-0.504,0.273-0.996,0.412-1.565,0.419c-1.098,0.019-1.916,0.645-2.653,1.374
		c-0.152,0.15-0.195,0.42-0.272,0.64c-0.076,0.229,0.079,0.498,0.298,0.545c0.77,0.159,1.565,0.244,2.307,0.495
		c0.891,0.299,1.748,0.716,2.595,1.126c0.638,0.311,1.247,0.682,1.852,1.048c1.26,0.757,2.643,0.982,4.082,0.972
		c0.238-0.001,0.472-0.031,0.706-0.067c0.56-0.087,1.113-0.811,1.068-1.392c-0.01-0.157-0.016-0.32-0.059-0.467
		c-0.407-1.311-1.002-2.491-2.227-3.213C127.267,27.773,126.062,27.382,124.864,26.982z M136.176,37.25
		c-0.063-0.015-0.15,0.006-0.212,0.037c-0.065,0.033-0.169,0.103-0.166,0.146c0.136,1.253,0.397,2.497,0.303,3.776
		c-0.02,0.296,0.114,0.62,0.234,0.908c0.983,2.387,1.178,4.905,1.233,7.444c0.014,0.476-0.032,0.949-0.016,1.422
		c0.003,0.14,0.101,0.362,0.209,0.397c0.553,0.194,0.849,0.674,1.256,1.029c0.042,0.032,0.244-0.106,0.354-0.189
		c0.056-0.042,0.095-0.135,0.105-0.208c0.198-1.983,0.823-3.859,1.432-5.739c0.121-0.378,0.241-0.757,0.326-1.143
		c0.065-0.306,0.153-0.639,0.098-0.938c-0.313-1.731-0.794-3.401-2.184-4.625c-0.472-0.417-0.996-0.781-1.498-1.169
		C137.211,37.95,136.82,37.424,136.176,37.25z M131.504,30.927c0.153,0.438,0.238,0.91,0.596,1.263
		c0.179,0.172,0.739,0.176,0.859-0.036c0.794-1.416,1.143-2.922,0.895-4.538c-0.094-0.63-0.312-1.221-0.694-1.745
		c-0.781-1.084-1.555-2.181-2.353-3.252c-0.608-0.815-1.003-0.879-1.699-0.273c-1.016,0.891-1.963,1.835-2.2,3.262
		c-0.056,0.326,0.039,0.615,0.348,0.791c0.342,0.196,0.693,0.371,0.641,0.344C129.835,27.905,130.909,29.218,131.504,30.927z
		 M99.129,52.715c-0.646,0.959-0.306,2.206,0.986,2.544c0.134,0.034,0.311-0.017,0.451-0.072c0.558-0.223,0.975-1.258,0.7-1.774
		c-0.143-0.272-0.324-0.531-0.528-0.762C100.275,52.128,99.54,52.167,99.129,52.715z M105.791,44.456
		c-0.116-0.006-0.391-0.107-0.55-0.015c-0.405,0.236-0.791,0.529-1.122,0.861c-0.535,0.536-0.247,1.455,0.513,1.703
		c0.142,0.047,0.326,0.068,0.458,0.017c0.718-0.267,1.168-0.814,1.341-1.537C106.529,45.073,106.259,44.737,105.791,44.456z
		 M105.604,36.36c-0.174,0.313-0.25,0.445-0.326,0.578c-0.132,0.238-0.076,0.63,0.128,0.861c0.154,0.181,0.657,0.342,0.842,0.276
		c0.526-0.188,0.957-0.534,1.26-0.979c0.273-0.396,0.236-0.879,0.08-1.338c-0.124-0.365-0.663-0.576-0.933-0.346
		C106.248,35.757,105.858,36.129,105.604,36.36z M113.766,46.676c0.343-0.397,0.333-0.843,0.133-1.035
		c-0.208-0.201-0.614-0.313-0.845-0.179c-0.534,0.306-1.061,0.625-1.578,0.958c-0.246,0.159-0.393,0.659-0.237,0.815
		c0.157,0.16,0.353,0.319,0.563,0.378c0.379,0.101,0.782,0.068,1.104-0.183C113.271,47.151,113.604,46.822,113.766,46.676z
		 M132.039,54.955c0.172-0.315,0.371-0.657,0.546-1.009c0.163-0.331,0.02-0.781-0.345-1.022c-0.121-0.082-0.329-0.165-0.437-0.116
		c-0.739,0.345-1.341,0.817-1.471,1.702c-0.058,0.384,0.105,0.801,0.504,0.949c0.199,0.075,0.476,0.08,0.665-0.001
		C131.703,55.372,131.847,55.147,132.039,54.955z M123.545,34.755c-0.735-0.645-1.748-0.707-2.57-0.153
		c-0.231,0.15-0.261,0.664-0.051,0.824c0.775,0.58,1.86,0.641,2.602,0.146C123.751,35.424,123.761,34.944,123.545,34.755z
		 M112.321,35.956c-0.321,0.363-0.329,0.918-0.014,1.253c0.328,0.347,0.863,0.466,1.26,0.28c0.456-0.212,0.802-0.81,0.762-1.318
		c-0.031-0.378-0.619-0.811-1.023-0.752C112.938,35.468,112.581,35.667,112.321,35.956z M121.827,60.265
		c-0.108,0.127-0.026,0.54,0.14,0.626c0.205,0.104,0.414,0.212,0.631,0.262c0.479,0.111,0.924-0.045,1.361-0.226
		c0.296-0.125,0.495-0.488,0.41-0.743c-0.127-0.385-0.544-0.705-0.875-0.617c-0.521,0.146-1.036,0.332-1.547,0.511
		C121.892,60.097,121.866,60.199,121.827,60.265z M112.813,59.827c-0.137-0.059-0.338-0.197-0.552-0.229
		c-0.464-0.075-0.915,0.028-1.349,0.21c-0.2,0.085-0.29,0.361-0.164,0.581c0.453,0.789,0.795,0.958,1.703,0.845
		c0.379-0.047,0.631-0.237,0.688-0.496C113.214,60.398,113.056,60.141,112.813,59.827z M121.564,40.058
		c-0.429-0.34-1.088-0.186-1.418,0.339c-0.142,0.224-0.09,0.472,0.045,0.657c0.299,0.417,0.72,0.586,1.239,0.515
		c0.367-0.05,0.702-0.274,0.676-0.531c-0.022-0.218-0.12-0.435-0.221-0.631C121.811,40.271,121.674,40.173,121.564,40.058z"/>
	<g>
		<polygon fill="#F8BE39" points="142.266,72.973 142.266,72.968 142.292,72.935 		"/>
		<path fill="#F8BE39" d="M142.273,72.931c0-0.01,0.003-0.018,0.003-0.028c0.006,0.012,0.009,0.023,0.016,0.032
			C142.286,72.935,142.279,72.934,142.273,72.931z"/>
		<path fill="#F8BE39" d="M142.266,72.968c-0.019-0.02-0.036-0.037-0.051-0.055c0.019,0.005,0.039,0.011,0.059,0.018
			C142.273,72.943,142.266,72.954,142.266,72.968L142.266,72.968z"/>
		<path fill="#F8BE39" d="M140.844,63.925c-1.692-0.43-3.33-0.324-4.964,0.275c-1.706,0.63-3.158,1.649-4.167,3.129
			c-1.186,1.742-1.836,3.675-1.527,5.868c0.208,1.451,0.417,2.869,1.159,4.176c0.511,0.894,1.351,1.452,2.011,2.188
			c0.336,0.371,0.912,0.543,1.403,0.751c1.344,0.573,2.721,1.039,4.203,1.131c1.083,0.067,2.145,0.01,3.174-0.376
			c0.358-0.133,0.716-0.314,1.087-0.363c0.878-0.119,1.582-0.566,2.243-1.097c1.207-0.973,2.229-2.091,2.737-3.61
			c0.176-0.521,0.349-1.016,0.241-1.504c0.065-0.444,0.14-0.824,0.169-1.203c0.062-0.773-0.006-1.533-0.28-2.269
			c-0.189-0.5-0.354-1.01-0.537-1.517c-0.238-0.658-0.58-1.257-1.048-1.772C145.121,65.938,143.25,64.535,140.844,63.925z
			 M143.556,67.61c-0.173-0.118-0.326-0.294-0.427-0.482c-0.042-0.076,0.055-0.243,0.117-0.351c0.02-0.038,0.137-0.046,0.198-0.028
			c0.291,0.089,0.512,0.257,0.567,0.58c-0.022,0.066-0.029,0.174-0.071,0.193C143.819,67.576,143.633,67.662,143.556,67.61z
			 M138.328,65.159c0.153,0.252,0.195,0.57,0.283,0.861c0.12,0.395,0.375,0.656,0.792,0.724c0.377,0.062,0.755,0.109,1.132,0.164
			c0.228,0.033,0.453,0.067,0.677,0.109c0.31,0.057,0.603,0.317,0.593,0.602c-0.01,0.208-0.072,0.475-0.212,0.61
			c-0.439,0.418-0.973,0.734-1.315,1.262c-0.248,0.379-0.25,0.973,0.075,1.271c0.387,0.36,0.791,0.713,1.217,1.034
			c0.384,0.289,0.547,0.693,0.707,1.107c0.052-0.448,0.254-0.786,0.722-0.918c0.499-0.146,1.003-0.282,1.364-0.691
			c0.188-0.217,0.205-0.443,0.078-0.666c-0.049-0.03-0.101-0.062-0.146-0.098c0.022-0.021,0.049-0.041,0.075-0.061
			c0.002-0.136,0.002-0.268,0.013-0.405c0.006-0.071,0.02-0.154,0.059-0.205c0.022-0.027,0.166-0.006,0.166,0.002
			c0.017,0.124,0.063,0.273,0.01,0.371c-0.052,0.097-0.153,0.167-0.247,0.238c0,0.013,0,0.023,0,0.036
			c0.032,0.041,0.048,0.082,0.071,0.122c0.261,0.151,0.56,0.254,0.602,0.664c0.078,0.68,0.465,1.115,1.182,1.2
			c0.153,0.016,0.309,0.029,0.456,0.066c0.364,0.093,0.603,0.464,0.619,0.846c0.026,0.642-0.319,1.176-0.456,1.768
			c-0.367,1.582-1.351,2.728-2.601,3.666c-0.791,0.595-1.667,1.053-2.725,0.792c-0.009,0.02-0.02,0.041-0.029,0.062
			c-0.029-0.001-0.059-0.006-0.088-0.008c-0.088,0.083-0.172,0.174-0.273,0.211c-1.156,0.405-2.337,0.405-3.52,0.143
			c-0.794-0.177-1.529-0.483-1.999-1.208c-0.036-0.001-0.068-0.001-0.104-0.001c-0.283-0.202-0.566-0.404-0.853-0.606
			c-0.016-0.027-0.036-0.05-0.055-0.074c-0.121-0.033-0.242-0.063-0.362-0.102c-0.202-0.065-0.361-0.17-0.38-0.394
			c-0.022-0.002-0.039-0.013-0.059-0.014c0-0.027-0.013-0.047-0.016-0.076c-0.627-0.225-0.7-0.315-0.703-0.943
			c-0.02-0.009-0.039-0.024-0.063-0.032c0-0.021-0.002-0.038,0-0.056c-0.289-0.017-0.374-0.193-0.348-0.457
			c-0.016-0.002-0.026-0.01-0.045-0.01c0.003-0.02,0.003-0.039,0.01-0.059c-0.299-0.109-0.45-0.368-0.544-0.633
			c-0.378-1.092-0.589-2.228-0.586-3.373c0.009-1.46,0.218-2.889,1.107-4.141c1.275-1.8,3.033-2.749,5.176-3.039
			C137.95,64.799,138.227,64.989,138.328,65.159z M142.602,69.314c0.042,0.06,0.091,0.121,0.121,0.188
			c0.084,0.209,0.172,0.417,0.237,0.632c0.14,0.46-0.296,0.85-0.816,0.734c-0.482-0.107-0.772-0.454-0.801-0.952
			c-0.02-0.345,0.189-0.556,0.446-0.725C142.058,69.018,142.442,69.084,142.602,69.314z M141.531,65.515
			c0.045,0.043,0.052,0.135,0.078,0.204c-0.017,0.065-0.017,0.169-0.052,0.184c-0.521,0.218-1.211,0.121-1.475-0.213
			c-0.029-0.036,0.003-0.171,0.049-0.213C140.534,65.111,141.111,65.127,141.531,65.515z"/>
		<polygon fill="#F8BE39" points="140.209,72.374 140.206,72.476 140.209,72.366 140.212,72.369 		"/>
		<path fill="#F8BE39" d="M140.212,72.369c0-0.015-0.003-0.065-0.003-0.065L140.212,72.369L140.212,72.369z"/>
		<path fill="#F8BE39" d="M133.012,74.818c0.205-0.019,0.514-0.008,0.619,0.124c0.383,0.472,0.696,1.003,1.054,1.5
			c0.456,0.638,1.032,1.183,1.761,1.434c1.585,0.549,3.151,1.265,4.909,0.986c0.072-0.011,0.192,0.002,0.215,0.044
			c0.059,0.113,0.11,0.249,0.094,0.368c-0.017,0.122-0.084,0.24-0.146,0.356c-0.017-0.003-0.033-0.004-0.052-0.011
			c-0.022,0.021-0.042,0.044-0.065,0.065c-1.687-0.158-3.359-0.363-5.003-0.795c-0.25-0.066-0.521-0.05-0.788-0.058
			c-0.006-0.012-0.019-0.023-0.026-0.036c-0.302-0.208-0.605-0.417-0.908-0.626c-0.026-0.006-0.052-0.013-0.078-0.019
			c-0.179-0.264-0.414-0.451-0.743-0.496c-0.003-0.022-0.01-0.042-0.01-0.066c-0.023-0.009-0.042-0.016-0.065-0.024
			c-0.042-0.456-0.295-0.754-0.703-0.943c0-0.026,0-0.048,0-0.08c-0.026,0.002-0.039-0.006-0.063-0.008
			c0.007-0.246-0.071-0.428-0.348-0.457c0.003-0.018,0-0.031,0-0.049c-0.013-0.005-0.022-0.013-0.035-0.02
			c0.035-0.281,0.058-0.568,0.13-0.841C132.794,75.03,132.914,74.828,133.012,74.818z"/>
		<polygon fill="#F8BE39" points="140.127,72.315 140.209,72.304 140.209,72.366 		"/>
		<path fill="#F8BE39" d="M142.13,72.844c0.032,0.015,0.059,0.041,0.085,0.068c-0.076-0.024-0.15-0.046-0.222-0.07
			C142.038,72.842,142.094,72.826,142.13,72.844z"/>
	</g>
	<path fill-rule="evenodd" clip-rule="evenodd" fill="#F8BE39" d="M79.921,75.24c-0.018-0.006-0.47-0.137-0.901-0.319
		c-0.989-0.414-1.941-0.907-3-1.157c-0.364-0.086-0.7-0.387-0.998-0.651c-0.298-0.264-0.528-0.604-0.794-0.908
		c-0.112-0.127-0.403-0.144-0.556-0.042c-0.055,0.038-0.125,0.057-0.17,0.103c-1.233,1.276-2.885,1.66-4.502,2.124
		c-0.396,0.114-0.793,0.138-1.196,0.063c-1.122-0.217-2.27-0.346-3.356-0.678c-1.085-0.331-2.14-0.815-3.079-1.469
		c-0.827-0.577-1.583-1.251-2.023-2.204c-0.111-0.244-0.242-0.488-0.415-0.69c-1.11-1.289-1.428-2.86-1.629-4.476
		c-0.024-0.198-0.026-0.402-0.05-0.604c-0.029-0.253-0.283-0.561-0.492-0.568c-2.354-0.072-4.445-1.053-6.502-2.018
		c-1.577-0.739-2.961-1.855-4.163-3.143c-0.358-0.382-0.612-0.88-0.841-1.36c-0.457-0.959-0.337-1.33,0.668-1.691
		c1.982-0.714,3.782-1.754,5.45-3.013c1.319-0.994,2.796-1.587,4.377-1.974c0.262-0.063,0.525-0.114,0.787-0.178
		c0.354-0.086,0.456-0.252,0.36-0.564c-0.353-1.156-0.781-2.295-1.036-3.473c-0.282-1.309-0.417-2.65-0.585-3.981
		c-0.032-0.257,0.069-0.53,0.121-0.792c0.054-0.279,0.222-0.483,0.462-0.627c0.64-0.385,1.31-0.692,2.072-0.726
		c0.067-0.002,0.133-0.016,0.201-0.019c3.46-0.095,6.714,0.553,9.398,2.904c1.914,1.673,3.338,3.676,3.643,6.307
		c0.061,0.525,0.336,0.63,0.838,0.301c1.023-0.671,2.137-1.126,3.292-1.505c1.106-0.36,2.225-0.503,3.377-0.277
		c0.132,0.028,0.266,0.051,0.398,0.057c2.377,0.124,4.124,1.478,5.804,2.962c0.098,0.086,0.188,0.197,0.25,0.314
		c0.702,1.312,1.309,2.655,1.29,4.188c-0.007,0.607-0.003,1.21-0.008,1.816c-0.001,0.286,0.104,0.514,0.334,0.692
		c0.692,0.532,1.385,1.063,2.067,1.606c0.43,0.343,0.737,0.784,0.9,1.313c0.339,1.09,0.666,2.184,0.996,3.276
		c-0.039,1.478-0.016,2.96-0.14,4.432c-0.09,1.074-0.563,2.068-1.061,3.024c-0.153,0.294-0.359,0.586-0.61,0.797
		c-0.915,0.773-1.739,1.676-2.992,1.966c-0.444,0.103-0.875,0.364-1.248,0.641c-0.582,0.43-1.211,0.529-1.903,0.493
		c-0.468-0.021-0.94,0.042-1.408,0.015C81.021,75.504,80.693,75.398,79.921,75.24z M84.913,61.726l0.086-0.089l-0.124,0.043
		c0.093-0.146,0.197-0.288,0.277-0.442c0.018-0.034-0.022-0.133-0.064-0.159c-0.128-0.083-0.246-0.034-0.247,0.122
		C84.838,61.376,84.888,61.555,84.913,61.726z M84.004,51.985c-0.029,0.145-0.132,0.114-0.088,0.041
		c0.135-0.229-0.147-0.016,0.121-0.002c-0.128,0.233-0.272,0.459-0.383,0.702c-0.085,0.179-0.112,0.386-0.193,0.568
		c-0.149,0.343-0.665,0.587-1.014,0.496c-0.811-0.205-1.501-0.581-1.925-1.342c-0.229-0.412-0.462-0.82-0.71-1.221
		c-0.307-0.492-0.951-0.648-1.406-0.323c-0.439,0.31-0.838,0.679-1.282,0.979c-0.391,0.26-0.815,0.475-1.31,0.48
		c-0.362,0.003-0.671-0.132-0.861-0.428c-0.148-0.231-0.13-0.51-0.015-0.773c0.22-0.508,0.583-0.895,0.992-1.252
		c0.127-0.109,0.136-0.243,0.019-0.355c-0.037-0.037-0.122-0.049-0.18-0.037c-0.876,0.137-1.667,0.488-2.43,0.934
		c-1.603,0.941-2.586,2.31-2.928,4.129c-0.028,0.149,0.118,0.392,0.253,0.5c0.206,0.165,0.47,0.254,0.714,0.368
		c1.313,0.612,2.377,1.514,3.172,2.729c0.33,0.504,0.657,1.014,0.988,1.521c0.127,0.194,0.327,0.251,0.496,0.133
		c0.498-0.345,0.983-0.71,1.494-1.037c0.623-0.398,1.248-0.795,1.899-1.142c1.102-0.583,2.26-0.835,3.511-0.536
		c0.452,0.108,0.928,0.117,1.398,0.151c0.284,0.02,0.508-0.188,0.577-0.453c0.288-1.087,0.103-2.127-0.251-3.167
		C84.468,53.079,84.002,52.62,84.004,51.985z M60.91,58.741c-0.174,0.093-0.398,0.144-0.51,0.284
		c-0.331,0.418-0.634,0.859-0.921,1.31c-1.052,1.649-1.07,3.41-0.524,5.222c0.192,0.639,0.392,1.286,0.655,1.901
		c0.698,1.632,1.67,3.075,3.217,4.017c1.205,0.735,2.476,1.318,3.892,1.575c1.719,0.31,2.109,0.319,3.744-0.229
		c0.191-0.063,0.379-0.132,0.565-0.212c0.874-0.382,1.619-0.95,2.25-1.653c0.16-0.176,0.238-0.493,0.223-0.739
		c-0.031-0.463-0.18-0.921-0.232-1.385c-0.107-0.931-0.215-1.866-0.266-2.801c-0.084-1.519,0.251-2.933,1.197-4.16
		c0.382-0.497,0.3-0.971,0.052-1.5c-0.653-1.392-1.66-2.461-3.008-3.143c-1.01-0.513-2.106-0.866-3.177-1.247
		c-0.636-0.226-1.3-0.277-1.985-0.168c-0.598,0.093-1.216,0.113-1.755,0.401c-0.883,0.472-1.825,0.836-2.609,1.493
		c-0.374,0.312-0.634,0.682-0.869,1.087L60.91,58.741z M88.854,62.457c-0.109-0.993-0.629-1.732-1.438-2.308
		c-0.719-0.511-1.438-0.977-2.37-0.999c-0.324-0.008-0.645-0.173-0.97-0.251c-0.654-0.153-1.307-0.322-1.969-0.435
		c-0.321-0.053-0.674-0.049-0.993,0.018c-1.193,0.252-2.293,0.758-3.373,1.305c-0.293,0.148-0.558,0.378-0.789,0.616
		c-1.046,1.07-1.899,2.263-2.234,3.759c-0.118,0.524-0.221,1.053-0.323,1.581c-0.361,1.888,0.196,3.582,1.124,5.19
		c0.166,0.29,0.398,0.541,0.609,0.801c0.39,0.483,0.872,0.832,1.483,0.983c0.722,0.177,1.397,0.467,2.069,0.782
		c0.484,0.226,1.006,0.382,1.525,0.514c1.138,0.288,2.261,0.246,3.341-0.269c0.788-0.376,1.584-0.732,2.367-1.12
		c0.236-0.116,0.453-0.287,0.649-0.466c1.949-1.763,2.235-4.015,1.87-6.45c-0.006-0.034-0.133-0.09-0.178-0.07
		c-0.494,0.203-0.889,0.553-1.271,0.911c-0.079,0.073-0.101,0.251-0.087,0.374c0.056,0.467,0.14,0.93,0.207,1.396
		c0.076,0.545-0.016,1.081-0.208,1.583c-0.116,0.305-0.324,0.583-0.536,0.838c-0.281,0.339-0.689,0.393-1.101,0.352
		c-0.349-0.034-0.682-0.396-0.768-0.832c-0.119-0.591-0.253-1.177-0.203-1.795c0.03-0.395-0.04-0.799-0.097-1.195
		c-0.056-0.388-0.451-0.584-0.737-0.386c-0.385,0.267-0.749,0.568-1.15,0.808c-0.529,0.319-1.292,0.062-1.525-0.515
		c-0.225-0.556-0.441-1.123-0.595-1.702c-0.279-1.055,0.126-2.036,1.025-2.62c0.212-0.137,0.584-0.124,0.746,0.034
		c0.384,0.371,0.756,0.753,1.145,1.116c0.121,0.111,0.27,0.079,0.347-0.055c0.063-0.108,0.146-0.249,0.125-0.356
		c-0.04-0.186-0.125-0.378-0.239-0.529c-0.292-0.381-0.475-0.809-0.605-1.263c-0.242-0.851-0.071-1.588,0.582-2.203
		c0.259-0.246,0.624-0.285,0.914-0.116c0.814,0.477,1.243,1.211,1.392,2.113c0.064,0.394,0.027,0.8,0.045,1.201
		c0.01,0.292,0.306,0.495,0.554,0.386C87.76,62.943,88.304,62.701,88.854,62.457z M61.733,41.838
		c-1.198-0.225-2.404-0.329-3.614-0.329c-0.462,0-0.925,0.124-1.385,0.215c-0.264,0.048-0.48,0.339-0.459,0.576
		c0.036,0.4,0.076,0.803,0.122,1.203c0.227,2.036,1.023,3.885,1.874,5.715c0.167,0.358,0.439,0.673,0.688,0.988
		c0.375,0.475,0.798,0.912,1.155,1.396c0.937,1.279,2.182,2.175,3.564,2.897c0.423,0.225,0.873,0.302,1.359,0.153
		c0.714-0.218,1.452-0.266,2.196-0.231c0.201,0.01,0.403-0.001,0.604-0.01c0.472-0.019,0.692-0.288,0.651-0.805
		c-0.021-0.269-0.062-0.534-0.085-0.801c-0.053-0.593-0.375-1-0.886-1.255c-1.039-0.521-2.128-0.822-3.304-0.693
		c-0.33,0.034-0.66,0.124-0.981-0.033c-0.057-0.03-0.128-0.082-0.137-0.134c-0.01-0.053,0.032-0.143,0.08-0.177
		c0.159-0.116,0.32-0.256,0.501-0.308c0.973-0.273,1.963-0.43,2.979-0.342c0.157,0.017,0.3-0.29,0.232-0.449
		c-0.353-0.832-0.909-1.449-1.717-1.897c-0.842-0.466-1.675-0.853-2.665-0.732c-0.064,0.008-0.144-0.003-0.196-0.039
		c-0.102-0.069-0.209-0.146-0.277-0.248c-0.091-0.134-0.039-0.261,0.121-0.326c0.365-0.153,0.741-0.283,1.095-0.456
		c0.058-0.028,0.085-0.287,0.034-0.332c-0.245-0.222-0.503-0.446-0.794-0.598c-0.77-0.405-1.563-0.77-2.344-1.16
		c-0.116-0.059-0.245-0.133-0.312-0.236c-0.064-0.096-0.101-0.257-0.063-0.356c0.041-0.102,0.181-0.228,0.279-0.231
		c0.744-0.032,1.477,0.022,2.149,0.394c0.708,0.387,1.427,0.75,2.124,1.154c1.361,0.786,2.475,1.831,3.275,3.202
		c0.541,0.928,1.112,1.839,1.672,2.754c0.033,0.054,0.106,0.081,0.161,0.121c0.061-0.101,0.173-0.202,0.173-0.301
		c0.003-1.843-0.756-3.438-1.909-4.768C66.124,43.547,64.133,42.311,61.733,41.838z M55.67,62.371
		c0.342,0.018,0.676,0.042,1.013,0.055c0.417,0.017,0.654-0.12,0.796-0.462c0.104-0.248,0.183-0.51,0.292-0.752
		c0.613-1.341,1.132-2.738,2.215-3.811c0.062-0.06,0.016-0.241-0.004-0.361c-0.005-0.035-0.099-0.083-0.149-0.078
		c-2.292,0.176-4.498,0.757-6.679,1.444c-0.319,0.101-0.64,0.199-0.963,0.283c-0.035,0.01-0.112-0.06-0.132-0.108
		c-0.021-0.051-0.016-0.15,0.016-0.174c0.375-0.275,0.765-0.53,1.132-0.814c0.087-0.065,0.164-0.229,0.144-0.326
		c-0.022-0.092-0.163-0.198-0.271-0.227c-0.647-0.174-1.301-0.323-1.949-0.492c-0.185-0.048-0.214-0.161-0.104-0.283
		c0.042-0.049,0.073-0.127,0.127-0.146c0.184-0.07,0.375-0.168,0.565-0.173c1.154-0.028,2.284,0.143,3.358,0.56
		c0.762,0.298,1.443,0.135,2.115-0.231c0.152-0.082,0.183-0.206,0.084-0.333c-0.491-0.634-1.252-1.022-1.628-1.759
		c-0.049-0.1-0.034-0.257,0.006-0.37c0.064-0.172,0.365-0.291,0.505-0.22c0.175,0.088,0.376,0.156,0.516,0.285
		c0.646,0.598,1.372,1.078,2.127,1.521c0.422,0.248,0.867,0.363,1.353,0.267c0.326-0.065,0.656-0.137,0.978-0.225
		c0.127-0.034,0.236-0.122,0.354-0.186c-0.098-0.169-0.155-0.391-0.299-0.5c-0.762-0.561-1.444-1.211-2.057-1.924
		c-0.618-0.718-1.393-1.022-2.311-1.038c-1.591-0.023-3.048,0.464-4.408,1.237c-1.809,1.027-3.495,2.268-5.409,3.112
		c-0.265,0.117-0.368,0.426-0.277,0.672c0.354,0.979,0.919,1.785,1.833,2.324c0.346,0.205,0.682,0.431,1.007,0.669
		C51.405,61.134,53.57,61.669,55.67,62.371z M82.011,64.239c0.039,0.488,0.074,1.019,0.126,1.547
		c0.02,0.196,0.074,0.391,0.125,0.582c0.094,0.361,0.619,0.594,0.98,0.446c0.446-0.181,0.801-0.469,1.064-0.875
		c0.127-0.195,0.098-0.615-0.125-0.704c-0.521-0.208-0.896-0.562-1.201-1.016c-0.072-0.105-0.189-0.195-0.306-0.249
		c-0.115-0.052-0.271-0.098-0.378-0.061C82.192,63.946,82.126,64.096,82.011,64.239z M87.132,69.827
		c0.135-0.703,0.095-1.399-0.245-2.065c-0.028-0.054-0.077-0.103-0.126-0.142c-0.049-0.041-0.11-0.095-0.167-0.093
		c-0.042,0-0.102,0.067-0.123,0.119c-0.296,0.779-0.165,1.528,0.165,2.262c0.021,0.044,0.12,0.091,0.167,0.077
		C86.908,69.957,87.001,69.892,87.132,69.827z M77.21,50.598c-0.032-0.047-0.059-0.112-0.107-0.143
		c-0.052-0.029-0.139-0.058-0.184-0.033c-0.17,0.085-0.335,0.186-0.49,0.296c-0.048,0.032-0.094,0.155-0.083,0.163
		c0.091,0.075,0.197,0.186,0.299,0.186C76.937,51.062,77.088,50.847,77.21,50.598z M87.954,64.193
		c-0.047-0.115-0.065-0.259-0.146-0.34c-0.102-0.101-0.385,0.145-0.347,0.337c0.017,0.089,0.159,0.207,0.251,0.214
		C87.787,64.411,87.875,64.27,87.954,64.193z M79.587,49.674c0.072,0.013,0.139,0.045,0.2,0.036c0.126-0.016,0.25-0.055,0.375-0.084
		c-0.073-0.088-0.139-0.183-0.222-0.257c-0.046-0.039-0.121-0.052-0.184-0.067c-0.244-0.062-0.523,0.034-0.456,0.137
		C79.367,49.537,79.492,49.599,79.587,49.674z M86.242,65.722c-0.016-0.107-0.034-0.214-0.051-0.324
		c-0.053,0.022-0.122,0.031-0.158,0.07c-0.095,0.11-0.079,0.228,0.045,0.301C86.111,65.79,86.186,65.74,86.242,65.722z
		 M60.849,58.792c0.333-0.223,0.662-0.454,1.002-0.667c0.643-0.404,0.861-0.365,1.535,0.248c0.299,0.273,0.463,0.283,0.679,0.021
		c0.253-0.307,0.475-0.645,0.739-0.944c0.509-0.578,1.16-0.9,1.926-0.962c0.267-0.021,0.551,0.016,0.736,0.239
		c0.273,0.329,0.144,1.191-0.206,1.473c-0.521,0.42-1.051,0.827-1.563,1.258c-0.067,0.059-0.061,0.22-0.061,0.332
		c0.001,0.036,0.092,0.088,0.148,0.1c0.13,0.026,0.267,0.024,0.397,0.049c0.132,0.024,0.262,0.054,0.39,0.1
		c0.967,0.334,1.244,1.262,0.617,2.068c-0.205,0.266-0.403,0.538-0.631,0.78c-0.573,0.616-1.314,0.9-2.128,1.009
		c-0.111,0.015-0.288-0.059-0.348-0.151c-0.146-0.215-0.223-0.482-0.366-0.7c-0.104-0.155-0.264-0.278-0.421-0.383
		c-0.022-0.015-0.193,0.151-0.26,0.257c-0.246,0.4-0.464,0.815-0.714,1.212c-0.363,0.58-0.851,1.029-1.462,1.345
		c-0.396,0.205-1.023,0-1.194-0.427c-0.096-0.243-0.173-0.509-0.185-0.768c-0.033-0.775,0.254-1.458,0.768-2.017
		c0.36-0.388,0.801-0.703,1.207-1.05c0.222-0.187,0.271-0.466-0.001-0.664c-0.584-0.432-0.634-0.985-0.524-1.615
		c0.012-0.063-0.007-0.133-0.015-0.197C60.91,58.741,60.849,58.792,60.849,58.792z M62.021,62.896
		c0.014-0.09,0.041-0.158,0.031-0.22c-0.022-0.122-0.03-0.289-0.111-0.347c-0.08-0.059-0.259-0.056-0.357-0.005
		c-0.175,0.09-0.334,0.222-0.479,0.36c-0.351,0.335-0.557,0.746-0.609,1.234c-0.019,0.176,0.1,0.446,0.252,0.503
		c0.215,0.083,0.387-0.021,0.526-0.156C61.675,63.886,61.915,63.412,62.021,62.896z M66.264,61.451
		c-0.002-0.023,0.002-0.223-0.065-0.394c-0.067-0.166-0.496-0.177-0.733-0.049c-0.573,0.314-0.755,0.663-0.682,1.316
		c0.021,0.179,0.253,0.37,0.416,0.342C65.792,62.564,66.171,62.245,66.264,61.451z M62.495,59.545
		c-0.063-0.158-0.099-0.344-0.201-0.475c-0.108-0.142-0.383,0.004-0.425,0.212c-0.038,0.202,0.072,0.396,0.282,0.417
		C62.246,59.708,62.351,59.613,62.495,59.545z M72.255,62.249c-0.105,0.078-0.264,0.133-0.309,0.239
		c-0.425,0.991-0.759,2.023-0.891,3.086c-0.166,1.339-0.026,2.679,0.474,3.953c0.036,0.089,0.185,0.164,0.293,0.188
		c0.169,0.039,0.435-0.177,0.446-0.335c0.013-0.196,0.042-0.399,0.013-0.589c-0.078-0.53-0.21-1.055-0.274-1.587
		c-0.202-1.681-0.13-3.353,0.208-5.012L72.255,62.249z M72.212,62.192c0.117-0.046,0.267-0.061,0.344-0.146
		c0.111-0.12,0.057-0.263-0.098-0.329c-0.021-0.01-0.114,0.082-0.13,0.139c-0.04,0.127-0.051,0.262-0.073,0.393
		C72.255,62.249,72.214,62.193,72.212,62.192z M80.007,71.836c-0.636-0.374-1.313-0.675-1.938-1.063
		c-0.827-0.514-1.415-1.237-1.649-2.206c-0.252-1.04-0.792-2.006-0.778-3.117c0.001-0.078-0.161-0.156-0.249-0.234
		c-0.073,0.107-0.192,0.208-0.212,0.324c-0.165,0.943,0.096,1.865,0.163,2.799c0.103,1.457,0.837,2.537,2.017,3.315
		c0.612,0.405,1.285,0.72,1.948,1.04c0.163,0.079,0.409,0.073,0.585,0.013c0.172-0.059,0.302-0.237,0.474-0.384
		C80.239,72.143,80.16,71.924,80.007,71.836z"/>
	<path fill-rule="evenodd" clip-rule="evenodd" fill="#F8BE39" d="M155.134,68.743c-0.479-0.047-0.947-0.184-1.425-0.238
		c-0.707-0.077-1.325-0.275-1.846-0.804c-0.335-0.339-0.729-0.672-1.162-0.846c-1.224-0.493-1.914-1.539-2.718-2.468
		c-0.221-0.253-0.381-0.584-0.488-0.904c-0.354-1.046-0.674-2.129-0.595-3.233c0.11-1.509,0.367-3.008,0.563-4.512
		c0.511-1.049,1.016-2.105,1.534-3.157c0.25-0.508,0.628-0.905,1.12-1.185c0.778-0.443,1.563-0.869,2.351-1.299
		c0.26-0.143,0.403-0.356,0.446-0.646c0.094-0.615,0.195-1.227,0.283-1.839c0.225-1.557,1.052-2.82,1.973-4.038
		c0.081-0.107,0.192-0.205,0.303-0.278c1.94-1.235,3.923-2.329,6.348-2.075c0.137,0.015,0.277,0.013,0.417,0.006
		c1.201-0.047,2.312,0.273,3.375,0.817c1.11,0.567,2.165,1.208,3.092,2.049c0.456,0.412,0.755,0.35,0.899-0.171
		c0.726-2.617,2.49-4.419,4.69-5.807c3.092-1.953,6.491-2.09,9.98-1.446c0.069,0.017,0.134,0.04,0.198,0.052
		c0.769,0.157,1.4,0.573,1.986,1.064c0.218,0.186,0.358,0.42,0.368,0.71c0.01,0.273,0.072,0.566-0.003,0.82
		c-0.384,1.321-0.732,2.658-1.228,3.938c-0.446,1.152-1.061,2.24-1.602,3.353c-0.146,0.299-0.068,0.485,0.274,0.628
		c0.253,0.107,0.514,0.201,0.768,0.307c1.54,0.645,2.939,1.478,4.118,2.695c1.49,1.542,3.147,2.879,5.042,3.919
		c0.958,0.526,1.023,0.922,0.407,1.82c-0.309,0.45-0.648,0.913-1.067,1.244c-1.426,1.112-3.005,2.021-4.717,2.521
		c-2.24,0.649-4.515,1.311-6.907,1.007c-0.211-0.024-0.521,0.246-0.589,0.499c-0.055,0.198-0.088,0.405-0.146,0.602
		c-0.458,1.604-1.032,3.145-2.36,4.272c-0.208,0.177-0.38,0.405-0.53,0.633c-0.6,0.894-1.472,1.46-2.403,1.911
		c-1.051,0.511-2.197,0.836-3.35,0.999c-1.156,0.161-2.337,0.11-3.509,0.149c-0.42,0.015-0.817-0.075-1.198-0.252
		c-1.566-0.726-3.177-1.378-4.222-2.868c-0.039-0.054-0.107-0.085-0.157-0.132c-0.136-0.127-0.436-0.156-0.569-0.044
		c-0.315,0.266-0.605,0.573-0.951,0.794c-0.342,0.218-0.729,0.468-1.113,0.5c-1.109,0.086-2.155,0.431-3.219,0.693
		c-0.466,0.114-0.947,0.176-0.963,0.179C155.821,68.72,155.473,68.775,155.134,68.743z M153.881,53.682
		c0.023-0.157-0.088-0.228-0.231-0.163c-0.045,0.02-0.102,0.114-0.091,0.15c0.059,0.169,0.14,0.329,0.211,0.493l-0.12-0.065
		l0.075,0.106C153.776,54.036,153.855,53.861,153.881,53.682z M178.562,55.063c-0.176-0.448-0.377-0.861-0.709-1.241
		c-0.688-0.789-1.585-1.307-2.403-1.925c-0.501-0.378-1.123-0.495-1.715-0.687c-0.677-0.219-1.357-0.272-2.035-0.146
		c-1.146,0.217-2.311,0.399-3.418,0.757c-1.471,0.477-2.663,1.399-3.545,2.704c-0.335,0.496-0.495,0.967-0.185,1.528
		c0.762,1.393,0.875,2.879,0.547,4.404c-0.199,0.939-0.456,1.866-0.713,2.794c-0.126,0.46-0.351,0.902-0.456,1.366
		c-0.055,0.246-0.026,0.582,0.107,0.783c0.527,0.81,1.191,1.507,2.015,2.034c0.176,0.109,0.358,0.208,0.541,0.305
		c1.565,0.814,1.962,0.866,3.753,0.825c1.475-0.032,2.855-0.422,4.193-0.974c1.715-0.709,2.93-2.013,3.896-3.558
		c0.364-0.58,0.67-1.201,0.967-1.822c0.84-1.744,1.103-3.532,0.299-5.369c-0.218-0.502-0.456-0.998-0.723-1.472
		c-0.091-0.16-0.309-0.25-0.472-0.37L178.562,55.063z M151.163,55.312c0.234,0.151,0.566-0.01,0.622-0.301
		c0.082-0.402,0.111-0.822,0.238-1.209c0.293-0.891,0.846-1.566,1.745-1.919c0.322-0.125,0.683-0.028,0.908,0.262
		c0.563,0.729,0.618,1.5,0.238,2.323c-0.206,0.442-0.459,0.843-0.814,1.185c-0.14,0.135-0.257,0.315-0.326,0.498
		c-0.039,0.104,0.023,0.261,0.068,0.381c0.059,0.148,0.205,0.204,0.345,0.112c0.45-0.308,0.889-0.633,1.334-0.951
		c0.188-0.132,0.57-0.086,0.762,0.086c0.817,0.734,1.071,1.792,0.622,2.815c-0.247,0.563-0.56,1.103-0.875,1.63
		c-0.329,0.545-1.14,0.685-1.628,0.28c-0.364-0.31-0.687-0.671-1.035-1.002c-0.258-0.246-0.687-0.111-0.808,0.273
		c-0.12,0.391-0.254,0.792-0.29,1.195c-0.046,0.635-0.276,1.207-0.488,1.785c-0.16,0.43-0.553,0.741-0.912,0.722
		c-0.427-0.026-0.83-0.146-1.061-0.533c-0.172-0.291-0.339-0.608-0.407-0.936c-0.117-0.539-0.124-1.095,0.042-1.634
		c0.14-0.462,0.3-0.916,0.43-1.382c0.036-0.122,0.04-0.306-0.029-0.394c-0.329-0.423-0.674-0.84-1.139-1.125
		c-0.045-0.026-0.182,0.012-0.195,0.042c-0.755,2.409-0.823,4.734,0.869,6.831c0.169,0.212,0.365,0.418,0.583,0.575
		c0.729,0.516,1.48,1.003,2.22,1.51c1.009,0.694,2.142,0.915,3.34,0.806c0.546-0.051,1.1-0.127,1.627-0.279
		c0.729-0.213,1.458-0.398,2.217-0.462c0.645-0.057,1.189-0.332,1.661-0.759c0.253-0.23,0.53-0.449,0.745-0.714
		c1.195-1.481,2.028-3.108,1.963-5.078c-0.02-0.55-0.039-1.102-0.074-1.652c-0.102-1.567-0.775-2.912-1.664-4.162
		c-0.198-0.278-0.426-0.554-0.703-0.75c-1.002-0.726-2.038-1.415-3.207-1.857c-0.312-0.119-0.667-0.181-1.002-0.177
		c-0.687,0.008-1.374,0.075-2.061,0.127c-0.342,0.026-0.693,0.14-1.022,0.097c-0.95-0.124-1.751,0.234-2.562,0.637
		c-0.908,0.456-1.553,1.12-1.823,2.108C150.134,54.651,150.648,54.981,151.163,55.312z M173.767,40.371
		c-1.38,1.166-2.402,2.66-2.692,4.524c-0.016,0.104,0.085,0.222,0.127,0.333c0.062-0.031,0.143-0.049,0.182-0.096
		c0.713-0.838,1.439-1.669,2.133-2.522c1.028-1.261,2.324-2.141,3.828-2.722c0.769-0.296,1.557-0.55,2.334-0.83
		c0.739-0.267,1.491-0.205,2.239-0.059c0.098,0.02,0.222,0.171,0.245,0.28c0.023,0.107-0.039,0.266-0.117,0.352
		c-0.085,0.094-0.228,0.15-0.355,0.189c-0.853,0.27-1.716,0.514-2.562,0.8c-0.316,0.11-0.612,0.295-0.895,0.479
		c-0.063,0.042-0.075,0.306-0.02,0.341c0.332,0.231,0.69,0.425,1.036,0.639c0.149,0.089,0.186,0.226,0.071,0.348
		c-0.085,0.091-0.208,0.153-0.319,0.208c-0.059,0.026-0.143,0.024-0.205,0.007c-0.983-0.28-1.887-0.02-2.815,0.318
		c-0.892,0.323-1.553,0.86-2.041,1.646c-0.094,0.151,0,0.483,0.163,0.493c1.042,0.071,2.021,0.389,2.962,0.82
		c0.176,0.08,0.316,0.25,0.459,0.391c0.042,0.042,0.068,0.138,0.052,0.193c-0.02,0.051-0.098,0.093-0.16,0.113
		c-0.352,0.107-0.67-0.033-1-0.124c-1.168-0.316-2.32-0.186-3.457,0.176c-0.56,0.177-0.947,0.539-1.097,1.131
		c-0.065,0.265-0.149,0.529-0.214,0.796c-0.121,0.518,0.059,0.827,0.531,0.921c0.205,0.039,0.407,0.084,0.611,0.107
		c0.759,0.082,1.498,0.247,2.188,0.581c0.469,0.229,0.938,0.221,1.399,0.063c1.517-0.513,2.92-1.221,4.072-2.367
		c0.439-0.436,0.938-0.813,1.39-1.23c0.303-0.28,0.631-0.557,0.856-0.892c1.152-1.718,2.253-3.467,2.809-5.489
		c0.108-0.399,0.215-0.799,0.313-1.2c0.058-0.234-0.111-0.563-0.375-0.657c-0.449-0.163-0.899-0.361-1.367-0.435
		c-1.227-0.193-2.464-0.283-3.711-0.246C177.855,37.851,175.645,38.785,173.767,40.371z M189.821,57.887
		c0.368-0.188,0.746-0.363,1.13-0.515c1.009-0.404,1.709-1.128,2.227-2.062c0.13-0.234,0.075-0.564-0.176-0.726
		c-1.803-1.161-3.313-2.684-4.98-4.012c-1.253-1-2.653-1.726-4.268-1.954c-0.931-0.13-1.764,0.052-2.506,0.682
		c-0.736,0.624-1.53,1.172-2.39,1.623c-0.163,0.084-0.254,0.301-0.381,0.458c0.108,0.083,0.205,0.187,0.329,0.242
		c0.313,0.14,0.632,0.265,0.954,0.384c0.479,0.174,0.944,0.127,1.413-0.056c0.834-0.329,1.644-0.698,2.396-1.201
		c0.163-0.107,0.374-0.143,0.569-0.207c0.15-0.048,0.437,0.119,0.476,0.305c0.019,0.119,0.013,0.283-0.055,0.375
		c-0.498,0.687-1.329,0.958-1.927,1.522c-0.12,0.112-0.111,0.243,0.033,0.351c0.621,0.478,1.286,0.75,2.103,0.572
		c1.155-0.254,2.327-0.248,3.492-0.034c0.192,0.034,0.368,0.164,0.543,0.266c0.049,0.027,0.072,0.11,0.104,0.166
		c0.091,0.144,0.046,0.254-0.15,0.272c-0.68,0.068-1.367,0.116-2.051,0.187c-0.114,0.013-0.273,0.098-0.31,0.189
		c-0.039,0.094,0.014,0.27,0.092,0.351c0.329,0.345,0.681,0.667,1.015,1.004c0.033,0.031,0.02,0.132-0.009,0.179
		c-0.026,0.045-0.117,0.104-0.149,0.09c-0.316-0.137-0.625-0.285-0.932-0.439c-2.099-1.043-4.238-1.984-6.533-2.525
		c-0.049-0.015-0.152,0.018-0.163,0.054c-0.042,0.119-0.114,0.294-0.062,0.366c0.924,1.258,1.227,2.753,1.634,4.21
		c0.075,0.265,0.111,0.54,0.179,0.807c0.091,0.369,0.306,0.545,0.732,0.596c0.342,0.041,0.683,0.07,1.035,0.104
		C185.473,59.136,187.751,58.938,189.821,57.887z M156.026,56.833c-0.101-0.057-0.268-0.038-0.394,0
		c-0.124,0.038-0.261,0.106-0.348,0.202c-0.381,0.412-0.817,0.711-1.38,0.837c-0.238,0.057-0.335,0.479-0.238,0.695
		c0.202,0.453,0.518,0.799,0.94,1.053c0.342,0.208,0.912,0.057,1.062-0.293c0.082-0.186,0.169-0.375,0.221-0.57
		c0.137-0.527,0.257-1.058,0.375-1.546C156.169,57.047,156.127,56.886,156.026,56.833z M150.496,62.266
		c0.045,0.02,0.153-0.013,0.179-0.054c0.45-0.688,0.703-1.427,0.527-2.262c-0.013-0.057-0.062-0.133-0.104-0.141
		c-0.055-0.01-0.126,0.036-0.185,0.067c-0.055,0.034-0.114,0.074-0.15,0.125c-0.449,0.621-0.599,1.32-0.576,2.053
		C150.31,62.141,150.395,62.223,150.496,62.266z M163.793,44.723c0.101,0.02,0.228-0.077,0.332-0.135
		c0.014-0.008-0.012-0.142-0.055-0.181c-0.14-0.136-0.293-0.263-0.45-0.377c-0.042-0.033-0.137-0.02-0.191,0.003
		c-0.055,0.023-0.092,0.088-0.134,0.126C163.38,44.433,163.5,44.674,163.793,44.723z M150.463,56.472
		c0.094,0.005,0.257-0.091,0.29-0.179c0.068-0.189-0.179-0.485-0.299-0.397c-0.094,0.07-0.137,0.213-0.202,0.321
		C150.32,56.309,150.388,56.466,150.463,56.472z M161.365,42.654c0.084-0.092-0.186-0.236-0.439-0.213
		c-0.068,0.007-0.143,0.007-0.195,0.042c-0.098,0.062-0.179,0.146-0.267,0.222c0.121,0.05,0.238,0.109,0.365,0.146
		c0.062,0.019,0.134-0.002,0.208-0.007C161.143,42.786,161.28,42.745,161.365,42.654z M151.902,58.111
		c0.137-0.054,0.169-0.17,0.091-0.296c-0.03-0.044-0.098-0.065-0.146-0.096c-0.036,0.107-0.072,0.213-0.104,0.319
		C151.798,58.065,151.863,58.126,151.902,58.111z M178.503,54.998c-0.02,0.065-0.049,0.131-0.046,0.196
		c0.01,0.656-0.13,1.21-0.788,1.55c-0.31,0.161-0.303,0.451-0.107,0.675c0.355,0.415,0.752,0.804,1.055,1.255
		c0.433,0.646,0.612,1.387,0.456,2.165c-0.052,0.261-0.172,0.518-0.309,0.751c-0.241,0.403-0.908,0.511-1.276,0.239
		c-0.569-0.417-0.992-0.949-1.266-1.595c-0.189-0.439-0.345-0.895-0.53-1.339c-0.052-0.119-0.199-0.314-0.221-0.303
		c-0.179,0.078-0.362,0.179-0.488,0.321c-0.183,0.199-0.299,0.456-0.482,0.651c-0.078,0.083-0.27,0.128-0.377,0.096
		c-0.808-0.239-1.511-0.645-1.996-1.359c-0.192-0.283-0.348-0.591-0.515-0.89c-0.507-0.916-0.078-1.811,0.954-1.999
		c0.136-0.023,0.273-0.034,0.41-0.038c0.137-0.003,0.277,0.02,0.411,0.013c0.059-0.001,0.159-0.041,0.166-0.077
		c0.02-0.114,0.052-0.277-0.01-0.343c-0.446-0.52-0.921-1.016-1.38-1.525c-0.31-0.34-0.303-1.233,0.025-1.525
		c0.221-0.195,0.518-0.188,0.785-0.124c0.765,0.186,1.374,0.613,1.797,1.281c0.218,0.345,0.391,0.721,0.596,1.074
		c0.176,0.298,0.345,0.315,0.693,0.086c0.778-0.513,1.006-0.518,1.592-0.007c0.313,0.269,0.609,0.557,0.911,0.835
		C178.562,55.063,178.506,55.002,178.503,54.998z M177.257,60.538c0.12,0.159,0.279,0.293,0.507,0.242
		c0.166-0.034,0.329-0.288,0.335-0.47c0.026-0.503-0.116-0.951-0.419-1.346c-0.12-0.163-0.264-0.323-0.427-0.439
		c-0.091-0.065-0.273-0.1-0.361-0.054c-0.091,0.049-0.127,0.215-0.169,0.335c-0.02,0.061-0.004,0.135-0.004,0.226
		C176.746,59.573,176.911,60.09,177.257,60.538z M173.539,58.295c0.16,0.054,0.423-0.102,0.472-0.281
		c0.179-0.65,0.052-1.034-0.479-1.44c-0.222-0.169-0.658-0.226-0.752-0.068c-0.095,0.163-0.121,0.366-0.127,0.389
		C172.621,57.714,172.953,58.095,173.539,58.295z M177.097,55.774c0.215,0.013,0.361-0.165,0.352-0.376
		c-0.006-0.216-0.263-0.408-0.397-0.282c-0.124,0.116-0.189,0.298-0.277,0.448C176.909,55.655,177,55.769,177.097,55.774z
		 M166.511,56.698c0.078,1.733-0.117,3.437-0.589,5.106c-0.149,0.532-0.368,1.04-0.53,1.564c-0.059,0.19-0.063,0.4-0.082,0.601
		c-0.013,0.161,0.221,0.421,0.4,0.411c0.111-0.01,0.274-0.06,0.326-0.146c0.71-1.21,1.064-2.546,1.11-3.929
		c0.036-1.099-0.14-2.194-0.413-3.266c-0.026-0.113-0.179-0.194-0.274-0.292L166.511,56.698z M166.459,56.747
		c0-0.135,0.01-0.275-0.01-0.407c-0.009-0.062-0.088-0.167-0.111-0.163c-0.169,0.042-0.248,0.179-0.15,0.317
		c0.062,0.098,0.212,0.137,0.323,0.204L166.459,56.747z M156.641,65.66c0.15,0.176,0.251,0.377,0.417,0.464
		c0.169,0.089,0.416,0.135,0.595,0.08c0.723-0.218,1.452-0.43,2.136-0.741c1.321-0.602,2.236-1.579,2.571-3.039
		c0.215-0.934,0.628-1.826,0.612-2.808c-0.003-0.123-0.108-0.243-0.167-0.361c-0.097,0.065-0.276,0.117-0.289,0.197
		c-0.16,1.125-0.863,2.018-1.283,3.032c-0.391,0.943-1.104,1.58-2.021,1.969c-0.693,0.295-1.429,0.49-2.132,0.769
		C156.915,65.289,156.798,65.497,156.641,65.66z"/>
</g>
</svg>
