<?xml version="1.0" encoding="utf-8"?>
<!-- Generator: Adobe Illustrator 16.0.0, SVG Export Plug-In . SVG Version: 6.00 Build 0)  -->
<!DOCTYPE svg PUBLIC "-//W3C//DTD SVG 1.1//EN" "http://www.w3.org/Graphics/SVG/1.1/DTD/svg11.dtd">
<svg version="1.1" id="Layer_1" xmlns="http://www.w3.org/2000/svg" xmlns:xlink="http://www.w3.org/1999/xlink" x="0px" y="0px"
	 width="100px" height="100px" viewBox="0 0 100 100" enable-background="new 0 0 100 100" xml:space="preserve">
<path fill-rule="evenodd" clip-rule="evenodd" fill="#F8BE39" d="M4.789,41.88c-0.258-2.378,0.288-4.843,0.526-7.329
	c0.053-0.556,0.227-1.124,0.461-1.635c1.604-3.521,3.207-7.052,6.221-9.661c1.023-0.887,1.812-1.982,2.967-2.781
	c3.773-2.611,8.054-3.602,12.473-4.239c0.333-0.048,0.682-0.042,1.019-0.014c3.067,0.252,6.103,0.606,8.938,1.966
	c2.15,1.032,4.303,2.05,6.294,3.379c0.566,0.379,1.122,0.79,1.729,1.091c1.302,0.644,1.617,1.106,3.249-0.367
	c2.882-2.604,6.21-4.585,9.825-6.043c2.974-1.201,6.13-1.659,9.271-2.165c0.221-0.036,0.453-0.005,0.68,0.013
	c4.241,0.333,8.286,1.406,12.091,3.305c0.903,0.452,1.765,1.062,2.499,1.756c1.484,1.405,2.977,2.828,4.265,4.407
	c1.432,1.756,2.685,3.664,3.929,5.563c1.193,1.826,1.902,3.841,2.174,6.036c0.234,1.911,0.703,3.793,1.015,5.697
	c0.167,1.006,0.344,2.034,0.305,3.044c-0.116,2.959-0.514,5.885-1.364,8.736c-0.358,1.197-0.73,2.395-0.999,3.613
	c-0.597,2.705-1.847,5.128-3.224,7.48c-0.683,1.167-1.541,2.26-2.473,3.238c-0.68,0.713-1.007,1.397-1.036,2.386
	c-0.061,2.005-1.436,4.718-2.955,5.926c-0.61,0.485-1.342,0.851-2.07,1.143c-0.734,0.295-1.521,0.548-2.302,0.61
	c-1.54,0.122-2.857,0.622-3.948,1.735c-0.229,0.233-0.561,0.393-0.872,0.519c-2.211,0.897-4.399,1.862-6.651,2.644
	c-3.338,1.159-6.776,1.93-10.309,2.238c-2.148,0.188-4.299,0.365-6.448,0.545c-0.114,0.01-0.229,0.019-0.341,0.011
	c-0.792-0.057-1.601-0.037-2.373-0.194c-2.664-0.541-5.407-0.401-8.048-1.323c-3.755-1.312-7.492-2.641-11.064-4.386
	c-1.833-0.895-3.712-1.79-5.339-2.996c-2.093-1.55-4.07-3.3-5.884-5.169c-1.896-1.953-3.607-4.097-5.271-6.254
	c-3.106-4.024-5.161-8.51-5.996-13.582C5.268,47.897,4.864,44.984,4.789,41.88z M28.461,69.043c0.029-0.438,0.085-0.854,0.675-0.846
	c0.203-0.097,0.313,0.052,0.141,0.17c-0.369,0.255,0.22,0.125-0.182-0.075c0.122,0.595,0.122,0.595-0.545,0.841
	c-0.485,0.259-0.55,0.712-0.548,1.194c-0.676-0.438-1.443-0.178-2.162-0.283c-0.124,0.172-0.221,0.461-0.374,0.497
	c-0.817,0.189-1.569,0.116-2.071-0.701c-0.154-0.251-0.191-0.477,0.064-0.574c1.036-0.397,2.208-0.477,3.011-1.407
	c0.742-0.861,1.54-1.672,2.284-2.532c0.294-0.341,0.486-0.769,0.761-1.129c0.76-0.994,1.521-1.988,2.321-2.949
	c0.283-0.343,0.671-0.601,1.021-0.882c0.284-0.229,1.026-0.149,1.257,0.157c0.341,0.452,0.646,0.929,0.957,1.398
	c-0.457,0.025-0.916,0.05-1.354,0.11c-0.097,0.353-0.193,0.706-0.306,1.048c-0.428,0.082-0.854,0.163-1.269,0.24
	c0.227,0.065,0.245,0.114,0.058,0.148c0.002-0.07,0.004-0.141,0.006-0.212c0.378-0.074,0.756-0.147,1.134-0.221
	c0.114-0.376,0.23-0.75,0.345-1.125c0.461,0.007,0.92,0.013,1.381,0.02c0.049-0.217,0.031-0.489,0.157-0.642
	c2.083-2.534,4.222-5.018,6.806-7.069c0.709-0.562,1.412-1.132,2.113-1.703c0.196-0.159,0.196-0.672-0.03-0.926
	c-0.301-0.332-0.612-0.664-0.969-0.932c-0.149-0.112-0.498-0.157-0.63-0.06c-0.546,0.395-1.083,0.818-1.552,1.302
	c-1.823,1.885-3.938,3.417-6.144,4.78c-3.555,2.196-7.215,4.221-10.847,6.291c-0.616,0.351-1.118,0.804-1.461,1.38
	c-0.52,0.87-1.014,1.771-1.374,2.714c-0.711,1.857,0.36,3.688,2.339,4.117c0.858,0.185,1.581,0.089,1.8-0.975
	c0.018-0.092,0.368-0.115,0.563-0.169c0.686,0.384,1.426,0.286,2.143,0.2C28.14,69.84,28.301,69.441,28.461,69.043z M17.788,66.174
	c-0.174,0.227-0.55,0.469,0.051,0.634c-0.039-0.196-0.08-0.392-0.12-0.587c-0.316-0.167-0.634-0.332-0.949-0.498
	c0-0.439-0.171-0.707-0.659-0.665c0.063-0.096,0.153-0.184,0.179-0.289c0.085-0.361,0.252-0.612,0.668-0.519
	c0.547,0.123,0.897,0.729,1.53,0.639c0.088-0.013,0.187-0.093,0.238-0.17c0.057-0.083,0.12-0.229,0.086-0.298
	c-0.146-0.297-0.277-0.625-0.504-0.849c-0.888-0.87-1.971-1.556-2.517-2.735c-0.031-0.067,0.056-0.224,0.13-0.295
	c0.065-0.065,0.215-0.127,0.284-0.096c0.405,0.177,0.797,0.383,1.199,0.572c0.188,0.391,0.482,0.536,0.896,0.407
	c0.062,0.471,0.126,0.941,0.188,1.411c-0.026-0.258,0.09-0.377,0.32-0.284c0.221,0.09,0.269,0.288,0.103,0.442
	c-0.177,0.166-0.337,0.091-0.415-0.167c0.039-0.467,0.204-0.959-0.266-1.324c-0.207-0.358-0.463-0.606-0.916-0.388
	c-0.008-0.321,0.103-0.717-0.044-0.952c-0.723-1.154-1.518-2.263-2.282-3.392c-1.229-1.814-2.182-3.715-2.172-5.993
	c0.004-0.787-0.232-1.571-0.34-2.36c-0.075-0.562-0.199-1.133-0.166-1.691c0.195-3.412,0.622-6.792,1.621-10.071
	c0.264-0.861,0.675-1.691,1.112-2.481c1.103-1.996,2.422-3.836,3.956-5.533c0.543-0.601,1.101-1.108,1.79-1.524
	c1.788-1.075,3.811-1.464,5.764-2.041c2.024-0.599,4.034-0.541,5.969,0.424c0.504,0.252,1.055,0.416,1.577,0.63
	c1.794,0.734,3.466,1.66,4.848,3.067c0.518,0.216,1.026,0.45,1.552,0.643c0.31,0.112,0.646,0.159,0.965,0.24
	c0.356,1.104,0.771,1.402,2.022,1.462c0.008,0.112-0.031,0.258,0.025,0.33c0.717,0.908,1.705,1.395,2.793,1.655
	c0.271,0.064,0.614-0.171,0.925-0.268c-0.136,0.46-0.134,0.899,0.329,1.171c0.961,0.567,1.939,1.107,2.947,1.629
	c0.299,0.016,0.599,0.019,0.896,0.05c0.327,0.036,0.396-0.049,0.175-0.254c-0.059-0.056-0.202-0.06-0.293-0.034
	c-0.289,0.083-0.571,0.189-0.858,0.286c-0.054-0.419-0.042-0.864-0.515-1.096c-0.967-0.476-2.003-0.84-2.771-1.657
	c-0.738-0.433-1.484-0.851-2.213-1.303c-0.465-0.289-0.922-0.55-1.498-0.441c-0.4-0.878-1.231-1.149-2.045-1.444
	c-0.338-0.271-0.673-0.547-1.016-0.814c-0.49-0.383-1.006-0.333-1.528-0.066c0.154-0.298,0.321-0.59,0.455-0.897
	c0.039-0.091-0.053-0.234-0.02-0.333c0.146-0.444,0.713-0.734,1.052-0.523c1.636,1.018,3.235,2.097,4.899,3.067
	c2.936,1.712,5.825,3.541,9.297,4.043c0.55,0.08,0.979,0.444,1.325,0.961c0.436,0.65,0.843,0.648,1.366,0.275
	c1.125-0.802,2.057-1.782,2.768-2.962c0.173-0.285,0.254-0.625,0.368-0.943c0.102-0.276-0.156-0.83-0.393-0.813
	c-1.146,0.083-2.327,0.054-3.35-0.386c-2.186-0.941-4.373-1.927-6.406-3.15c-3.989-2.395-8.048-4.659-12.108-6.924
	c-3.702-2.062-7.652-2.728-11.833-2.077c-0.673,0.104-1.345,0.213-2.021,0.306c-2.396,0.331-4.599,1.174-6.658,2.443
	c-1.56,0.961-3.017,2.009-4.015,3.598c-0.36,0.574-0.841,1.068-1.239,1.619c-1.882,2.593-3.069,5.546-4.313,8.464
	c-0.175,0.41-0.202,0.884-0.279,1.331c-0.736,4.289-0.744,8.554,0.108,12.85c0.671,3.378,1.815,6.558,3.395,9.588
	c1.104,2.114,2.354,4.15,3.991,5.905c0.191,0.206,0.597,0.209,0.902,0.308c-0.027,0.506,0.189,0.729,0.703,0.612
	C17.058,66.292,17.058,66.292,17.788,66.174z M80.703,62.154c0.069-0.467,0.349-0.624,0.79-0.527
	c0.187,0.041,0.368,0.101,0.553,0.151c0.075-0.384,0.148-0.768,0.223-1.15c1.081-0.251,1.418-1.434,2.344-1.867
	c0.161-0.075,0.465-0.035,0.599,0.076c0.142,0.118,0.262,0.417,0.209,0.579c-0.135,0.427-0.317,0.858-0.573,1.224
	c-0.717,1.022-1.478,2.013-2.228,3.011c-0.246,0.33-0.159,0.638,0.052,0.924c0.644,0.872,1.234,0.93,1.912,0.116
	c0.797-0.959,1.55-1.957,2.288-2.962c0.809-1.101,1.603-2.229,2.004-3.549c0.562-1.849,1.079-3.71,1.544-5.584
	c0.934-3.769,1.087-7.643,1.414-11.49c0.167-1.951-0.77-7.574-1.467-9.382c-0.203-0.53-0.394-1.077-0.686-1.559
	c-2.133-3.511-4.479-6.857-7.695-9.484c-0.786-0.644-1.627-1.26-2.532-1.715c-3.413-1.718-7.091-2.346-10.88-2.419
	c-0.227-0.004-0.465-0.025-0.68,0.031c-2.521,0.655-5.159,0.794-7.612,1.746c-0.845,0.329-1.741,0.57-2.517,1.019
	c-2.359,1.368-4.675,2.811-6.992,4.249c-0.276,0.17-0.504,0.461-0.677,0.744c-0.101,0.164-0.149,0.514-0.051,0.617
	c0.215,0.223,0.522,0.4,0.824,0.479c0.173,0.044,0.456-0.087,0.601-0.231c0.568-0.555,1.081-1.162,1.647-1.718
	c0.398-0.391,0.845-0.736,1.28-1.086c0.077-0.061,0.268-0.096,0.323-0.048c0.159,0.135,0.372,0.313,0.384,0.486
	c0.023,0.32-0.002,0.694-0.151,0.968c-0.432,0.792-0.949,1.534-1.389,2.321c-0.055,0.097,0.142,0.362,0.266,0.515
	c0.046,0.058,0.256,0.07,0.323,0.018c0.438-0.343,0.943-0.645,1.271-1.079c2.122-2.821,5.03-4.547,8.172-5.951
	c0.291-0.13,0.653-0.109,0.984-0.137c0.244-0.021,0.665,0.421,0.634,0.688c-0.023,0.208-0.068,0.512-0.205,0.589
	c-0.791,0.442-1.608,0.831-2.418,1.23c-2.391,1.178-4.387,2.809-5.824,5.078c-0.054,0.085-0.073,0.3-0.038,0.318
	c0.184,0.092,0.463,0.259,0.575,0.188c2.013-1.277,4.018-2.563,6.266-3.412c0.104-0.039,0.215-0.091,0.296-0.166
	c1.368-1.286,3.202-1.681,4.816-2.489c1.56-0.782,3.265-0.923,4.996-0.714c1.699,0.204,3.361,0.589,4.948,1.209
	c0.727,0.283,1.447,0.706,2.021,1.229c2.538,2.314,4.539,5.058,6.181,8.064c0.073,0.131-0.053,0.43-0.167,0.593
	c-0.174,0.248-0.693,0.201-0.89-0.056c-0.269-0.356-0.548-0.711-0.78-1.091c-0.593-0.969-1.103-1.994-1.753-2.92
	c-1.539-2.189-3.478-3.858-6.116-4.653c-1.527-0.46-3.073-0.689-4.65-0.785c-0.065-0.005-0.182,0.131-0.195,0.214
	c-0.016,0.1,0.027,0.286,0.091,0.309c0.523,0.197,1.052,0.387,1.591,0.541c2.235,0.631,4.14,1.774,5.793,3.428
	c1.942,1.944,3.58,4.111,5.047,6.417c0.302,0.477,0.639,0.988,0.737,1.524c0.228,1.244,0.74,2.382,1.122,3.567
	c0.138,0.428,0.266,0.886,0.26,1.327c-0.031,3.065,0.106,6.134-0.471,9.18c-0.789,4.168-2.269,8.076-4.226,11.823
	c0.689,0.718,0.686,0.746-0.142,1.007c-0.475,0.19-0.949,0.38-1.416,0.558c0.244-0.135,0.297,0.056,0.142,0.062
	C80.356,62.362,80.891,62.569,80.703,62.154z M41.601,39.405c0.085-0.054,0.166-0.136,0.26-0.152
	c0.067-0.013,0.15,0.061,0.227,0.096c-0.151,0.185-0.32,0.187-0.508,0.006c-0.244-0.473-0.567-0.786-1.136-0.608
	c0.22-0.49-0.034-0.946-0.104-1.415c-0.106-0.039-0.246-0.049-0.31-0.124c-0.126-0.147-0.318-0.364-0.279-0.491
	c0.051-0.167,0.293-0.382,0.459-0.386c0.324-0.008,0.721,0.02,0.965,0.199c1.575,1.167,3.4,1.769,5.22,2.389
	c1.389,0.473,2.789,0.909,4.182,1.372c0.341,0.113,0.484,0.851,0.244,1.184c-0.063,0.087-0.153,0.156-0.227,0.236
	c-0.47,0.51-0.472,0.661-0.074,0.86c0.721,0.36,1.473,0.571,2.28,0.575c0.587,0.002,1.124-0.174,1.56-0.561
	c0.86-0.763,1.529-1.662,1.727-2.824c0.027-0.158-0.142-0.412-0.293-0.519c-0.17-0.121-0.43-0.194-0.637-0.17
	c-2.335,0.272-4.474-0.371-6.556-1.334c-0.509-0.236-1.06-0.389-1.594-0.577c-2.912-1.023-5.576-2.455-7.773-4.673
	c-0.393-0.398-0.881-0.701-1.319-1.058c-0.211-0.175-0.426-0.213-0.609-0.027c-0.147,0.151-0.344,0.346-0.354,0.53
	c-0.103,1.875,0.475,3.562,1.595,5.04c0.449,0.592,1.116,0.737,1.794,0.365c-0.24,0.481-0.103,0.921,0.151,1.348
	C40.897,38.875,41.414,38.895,41.601,39.405z M45.866,40.173c-0.067,0.079-0.122,0.186-0.209,0.227
	c-0.061,0.028-0.163-0.037-0.246-0.061c0.104-0.237,0.271-0.269,0.496-0.096c0.424,0.418,0.849,0.837,1.269,1.236
	c0.027-0.244,0.159-0.36,0.384-0.308c0.039,0.01,0.049,0.145,0.069,0.221c-0.166,0.002-0.335,0.004-0.503,0.005
	C46.705,40.983,46.285,40.568,45.866,40.173z M55.742,56.828c0.308,1.012,0.949,1.528,2.044,1.369
	c0.16,0.277,0.258,0.647,0.496,0.815c1.207,0.85,2.468,1.619,3.677,2.466c2.231,1.565,4.409,3.207,6.664,4.739
	c2.106,1.43,3.848,3.172,5.165,5.35c0.469,0.777,0.98,1.531,1.525,2.256c0.188,0.253,0.513,0.524,0.804,0.56
	c1.246,0.156,2.493,0.087,3.687-0.349c2.248-0.821,3.443-3.716,3.109-5.54c-0.058-0.314-0.244-0.646-0.465-0.882
	c-0.945-1.009-2.082-1.833-3.363-2.271c-1.836-0.628-3.487-1.638-5.285-2.329c-2.867-1.102-5.599-2.477-8.303-3.937
	c-2.414-1.303-4.759-2.636-6.576-4.757c-0.587-0.685-1.361-1.203-2.019-1.832c-0.819-0.786-1.635-1.58-2.402-2.418
	c-1.003-1.098-1.879-2.279-2.174-3.797c-0.089-0.46-0.362-0.803-0.835-0.985c-3.178-1.229-6.348-2.474-9.528-3.7
	c-0.417-0.162-0.868-0.241-1.306-0.349c-0.279-0.069-0.667,0.372-0.57,0.648c0.147,0.424,0.217,0.895,0.446,1.269
	c1.131,1.839,2.348,3.623,3.791,5.235c2.445,2.731,5.332,4.935,8.392,6.918c0.252,0.163,0.642,0.115,0.967,0.166
	C54.031,56.438,54.685,56.939,55.742,56.828z M30.201,75.71c-0.595-0.042-0.998-0.41-1.439-0.763
	c-0.601-0.481-1.169-1.061-1.992-1.165c-0.087-0.01-0.261,0.068-0.263,0.112c-0.008,0.185-0.035,0.479,0.065,0.543
	c1.132,0.728,2.288,1.406,3.72,1.242c0.486,0.742,0.858,1.526,1.806,1.903c2.208,0.877,4.357,1.899,6.558,2.796
	c1.045,0.424,2.129,0.822,3.233,1.014c3.914,0.68,7.862,1.012,11.835,0.714c2.485-0.187,4.984-0.387,7.385-1.079
	c2.936-0.846,5.88-1.687,8.682-2.934c0.104-0.047,0.219-0.066,0.323-0.109c0.415-0.167,0.417-0.214,0.029-0.705
	c-0.699-0.889-0.689-1.013,0.191-1.478c0.697-0.37,1.445-0.643,2.013-1.238c0.289-0.301,0.326-0.808-0.006-1.201
	c-0.234-0.277-0.637-0.37-0.91-0.214c-0.195,0.112-0.424,0.187-0.587,0.334c-1.038,0.94-2.335,1.372-3.609,1.835
	c-0.426,0.155-0.89,0.194-1.269-0.153c-0.314-0.287,0.004-0.621-0.045-0.926c-0.035-0.211-0.136-0.412-0.193-0.596
	c0.215,0.257,0.486,0.332,0.796,0.226c0.073-0.025,0.167-0.113,0.176-0.183c0.033-0.23-0.114-0.328-0.379-0.239
	c-0.19,0.066-0.364,0.175-0.545,0.266c-0.641,0.229-1.274,0.49-1.928,0.68c-2.505,0.725-5.004,1.425-7.619,1.75
	c-5.281,0.655-10.412-0.089-15.527-1.269c-1.997-0.461-3.919-1.139-5.821-1.888c-0.372-0.146-0.593,0.057-0.752,0.395
	c-0.565,1.187-0.618,1.212-1.676,0.702c-0.817-0.393-1.612-0.838-2.439-1.21c-0.288-0.131-0.643-0.129-0.971-0.157
	c-0.095-0.008-0.259,0.07-0.284,0.145c-0.027,0.081,0.046,0.233,0.124,0.303c0.666,0.61,1.344,1.207,2.015,1.812
	c0.199,0.178,0.165,0.67-0.089,0.875C30.617,75.999,30.408,75.919,30.201,75.71z M84.316,41.952c0-0.566-0.008-1.133,0-1.701
	c0.046-3.31-1.029-6.237-3.104-8.782c-1.145-1.405-2.389-2.73-3.622-4.058c-0.382-0.41-0.829-0.813-1.327-1.045
	c-1.961-0.917-3.985-1.658-6.198-1.6c-2.529,0.065-4.917,0.751-7.195,1.809c-0.24,0.112-0.451,0.548-0.461,0.841
	c-0.018,0.558,0.095,1.128,0.2,1.682c0.447,2.346-0.004,4.485-1.419,6.415c-0.695,0.948-1.094,1.971-0.887,3.178
	c0.182,1.062-0.142,2.021-0.691,2.912c-0.417,0.674-0.864,1.331-1.297,1.997c-0.315,0.487-0.717,0.857-1.267,1.084
	c-0.417,0.172-0.806,0.412-1.199,0.637c-0.451,0.259-0.552,0.693-0.273,1.145c1.492,2.418,3.032,4.79,5.397,6.488
	c0.549,0.393,1.01,0.911,1.508,1.375c1.083,1.01,2.292,1.842,3.576,2.582c2.656,1.531,5.425,2.803,8.255,3.989
	c2.966,1.242,2.422,0.827,4.361-0.841c1.133-0.972,1.889-2.237,2.503-3.599C83.262,51.844,84.299,47.009,84.316,41.952z
	 M34.421,30.876c0.168-1.833,0.164-1.976-1.541-2.997c-0.387-0.232-0.81-0.408-1.216-0.608c-0.952-0.471-1.928-0.587-2.971-0.31
	c-0.984,0.262-1.981,0.51-2.987,0.656c-2.507,0.365-4.382,1.823-5.98,3.6c-1.368,1.522-2.154,3.476-2.889,5.354
	c-1.373,3.52-1.501,7.305-1.875,11.023c-0.023,0.223-0.01,0.463,0.052,0.675c0.388,1.318,0.475,2.67,0.585,4.031
	c0.053,0.661,0.279,1.346,0.582,1.941c1.191,2.345,2.911,4.306,4.695,6.208c0.543,0.579,1.181,0.645,1.849,0.253
	c1.467-0.86,2.875-1.829,4.382-2.608c3.538-1.829,6.809-4.077,10.119-6.266c1.246-0.823,2.255-1.89,3.131-3.085
	c0.271-0.372,0.374-0.832,0.157-1.284c-0.198-0.408-0.374-0.845-0.655-1.188c-1.556-1.898-2.444-4.055-2.731-6.492
	c-0.062-0.53-0.364-1.071-0.674-1.524C34.926,36.021,34.185,33.588,34.421,30.876z M50.177,73.912
	c4.528-0.103,9.198-0.98,13.704-2.667c0.949-0.355,1.845-0.872,2.737-1.363c0.281-0.154,0.479-0.464,0.711-0.707
	c0.196-0.203,0.215-0.441-0.008-0.61c-0.991-0.748-1.983-1.495-2.999-2.21c-5.291-3.731-10.585-7.453-15.792-11.302
	c-0.362-0.268-0.742-0.525-1.146-0.724c-0.172-0.084-0.479-0.084-0.635,0.015c-2.603,1.629-5.08,3.404-7.108,5.755
	c-1.333,1.547-2.786,2.99-4.138,4.522c-1.198,1.357-2.335,2.769-3.487,4.165c-0.202,0.245-0.102,0.772,0.139,0.902
	c2.515,1.355,5.167,2.338,7.967,2.9c1.558,0.314,3.158,0.443,4.696,0.828C46.5,73.835,48.193,73.84,50.177,73.912z M60.287,28.476
	c-0.081,0.006-0.197-0.018-0.234,0.026c-0.049,0.056-0.068,0.185-0.035,0.251c0.116,0.233,0.258,0.219,0.351-0.04
	C60.39,28.651,60.316,28.555,60.287,28.476z M34.819,21.148c-0.449,0.264-0.5,0.807-0.083,1.073
	c0.362,0.232,0.771,0.411,1.182,0.533c0.161,0.048,0.438-0.07,0.571-0.202c0.384-0.381,0.206-0.846,0.004-1.216
	c-0.136-0.248-0.467-0.388-0.725-0.585C35.412,20.896,35.095,20.988,34.819,21.148z M29.544,20.5
	c-0.459,0.256-0.439,0.732,0.035,0.962c0.285,0.138,0.601,0.241,0.912,0.295c0.407,0.072,0.807-0.48,0.614-0.883
	c-0.126-0.265-0.396-0.461-0.626-0.717C30.127,20.282,29.812,20.348,29.544,20.5z M26.861,21.352
	c-0.324-0.775-0.813-0.929-1.571-0.525c-0.252,0.135-0.332,0.298-0.208,0.558c0.324,0.69,0.951,0.906,1.606,0.539
	c0.091-0.051,0.153-0.159,0.229-0.242C26.899,21.571,26.903,21.453,26.861,21.352z M18.011,22.641
	c-0.317,0.179-0.323,0.611,0.002,0.784c0.287,0.153,0.608,0.272,0.929,0.325c0.282,0.045,0.611-0.479,0.441-0.722
	c-0.181-0.257-0.465-0.441-0.676-0.63C18.422,22.495,18.199,22.536,18.011,22.641z M37.156,25.027
	c-0.38-0.291-0.823-0.257-1.252-0.062c-0.244,0.112-0.286,0.304-0.089,0.533c0.302,0.352,0.689,0.589,1.162,0.506
	c0.169-0.03,0.303-0.256,0.453-0.392C37.342,25.412,37.307,25.143,37.156,25.027z M41.645,24.905
	c-0.354,0.033-0.591,0.223-0.715,0.559c-0.114,0.315,0.159,0.619,0.572,0.615c0.345-0.002,0.619-0.12,0.721-0.516
	C42.267,25.276,41.938,24.878,41.645,24.905z M46.295,27.631c-0.299,0.094-0.603,0.242-0.839,0.443
	c-0.275,0.237-0.14,0.708,0.199,0.745c0.321,0.036,0.666,0.042,0.969-0.047c0.136-0.041,0.191-0.347,0.282-0.533
	C46.884,27.845,46.603,27.534,46.295,27.631z M71.409,19.367c0.185-0.429,0.106-1.013-0.195-1.242
	c-0.287-0.218-0.63-0.241-0.918-0.036c-0.266,0.19-0.521,0.426-0.69,0.698c-0.075,0.124,0.006,0.457,0.13,0.571
	c0.238,0.219,0.557,0.351,0.754,0.469C70.889,19.883,71.287,19.651,71.409,19.367z M90.523,41.93
	c0.01-0.188-0.079-0.453-0.219-0.555c-0.134-0.099-0.405-0.084-0.585-0.025c-0.19,0.062-0.382,0.207-0.506,0.367
	c-0.112,0.147-0.24,0.43-0.175,0.533c0.095,0.146,0.356,0.194,0.555,0.258c0.097,0.032,0.211,0.007,0.317,0.006
	C90.295,42.508,90.502,42.274,90.523,41.93z M88.993,35.211c-0.266,0.146-0.482,0.392-0.696,0.618
	c-0.215,0.227-0.133,0.37,0.163,0.475c0.419,0.149,0.812,0.215,1.223-0.017c0.229-0.131,0.312-0.296,0.217-0.545
	C89.795,35.215,89.427,34.975,88.993,35.211z M78.208,20.215c0.05-0.173-0.039-0.437-0.157-0.598
	c-0.213-0.297-0.565-0.315-0.872-0.186c-0.153,0.065-0.335,0.294-0.335,0.447c0,0.349,0.219,0.602,0.583,0.68
	c0.103,0.023,0.213,0.018,0.319,0.027C77.909,20.465,78.163,20.371,78.208,20.215z M88.024,50.835
	c-0.002,0.026,0.124,0.057,0.189,0.085c0.031-0.09,0.078-0.179,0.081-0.27c0.002-0.025-0.124-0.056-0.191-0.084
	C88.072,50.656,88.026,50.746,88.024,50.835z M59.318,58.667c2.631,1.569,5.25,3.156,7.9,4.687c1.573,0.907,3.189,1.736,4.543,2.972
	c0.07,0.064,0.23,0.016,0.33,0.061c0.243,0.113,0.353,0.057,0.274-0.181c-0.101-0.308-0.168-0.664-0.37-0.895
	c-1.125-1.302-2.541-2.236-4.002-3.126c-4.355-2.659-8.686-5.362-13.035-8.031c-2.435-1.496-4.572-3.344-6.523-5.419
	c-0.777-0.826-1.552-1.655-2.356-2.457c-0.315-0.315-0.701-0.561-1.063-0.827c-0.234-0.172-0.885-0.092-0.932,0.12
	c-0.043,0.197-0.093,0.457-0.004,0.606c0.353,0.577,0.684,1.199,1.156,1.666c1.938,1.911,3.855,3.846,6.131,5.378
	c0.748,0.503,1.436,1.099,2.118,1.691c0.132,0.112,0.104,0.405,0.15,0.616c1.059-0.108,1.744,0.343,2.052,1.364
	c1.023-0.058,1.771,0.3,2.046,1.365C58.342,58.091,58.826,58.375,59.318,58.667z M80.699,70.45
	c-0.209,0.067-0.469,0.065-0.628,0.192c-0.914,0.742-1.993,1.035-3.121,1.219c-0.095,0.016-0.254,0.181-0.24,0.215
	c0.081,0.188,0.171,0.406,0.325,0.524c0.783,0.599,1.595,0.822,2.496,0.186c0.548-0.386,1.282-0.506,1.672-1.12
	c0.112-0.179,0.13-0.418,0.191-0.631C81.402,70.735,80.961,70.367,80.699,70.45z"/>
</svg>
