<?xml version="1.0" encoding="utf-8"?>
<!-- Generator: Adobe Illustrator 16.0.0, SVG Export Plug-In . SVG Version: 6.00 Build 0)  -->
<!DOCTYPE svg PUBLIC "-//W3C//DTD SVG 1.1//EN" "http://www.w3.org/Graphics/SVG/1.1/DTD/svg11.dtd">
<svg version="1.1" id="Capa_1" xmlns="http://www.w3.org/2000/svg" xmlns:xlink="http://www.w3.org/1999/xlink" x="0px" y="0px"
	 width="124px" height="112px" viewBox="0 0 124 112" enable-background="new 0 0 124 112" xml:space="preserve">
<g>
	<path fill="#EEEEEE" d="M112,0H12C5.4,0,0,5.4,0,12s5.4,12,12,12h100c6.6,0,12-5.4,12-12S118.6,0,112,0z"/>
	<path fill="#EEEEEE" d="M112,44H12C5.4,44,0,49.4,0,56c0,6.6,5.4,12,12,12h100c6.6,0,12-5.4,12-12C124,49.4,118.6,44,112,44z"/>
	<path fill="#EEEEEE" d="M112,88H12c-6.6,0-12,5.4-12,12s5.4,12,12,12h100c6.6,0,12-5.4,12-12S118.6,88,112,88z"/>
</g>
</svg>
