<?xml version="1.0" encoding="utf-8"?>
<!-- Generator: Adobe Illustrator 16.0.0, SVG Export Plug-In . SVG Version: 6.00 Build 0)  -->
<!DOCTYPE svg PUBLIC "-//W3C//DTD SVG 1.1//EN" "http://www.w3.org/Graphics/SVG/1.1/DTD/svg11.dtd">
<svg version="1.1" id="Capa_1" xmlns="http://www.w3.org/2000/svg" xmlns:xlink="http://www.w3.org/1999/xlink" x="0px" y="0px"
	 width="1313.333px" height="347.272px" viewBox="0 -0.893 1313.333 347.272" enable-background="new 0 -0.893 1313.333 347.272"
	 xml:space="preserve">
<g enable-background="new    ">
	<path fill="#222222" d="M0.422,256.446V6.939h89.624c32.102,0,56.521,5.885,73.259,17.65
		c16.734,11.768,25.104,28.849,25.104,51.238c0,12.911-2.972,23.936-8.911,33.073c-5.941,9.142-14.681,15.881-26.219,20.222
		c13.024,3.428,23.021,9.826,29.989,19.192c6.967,9.369,10.453,20.794,10.453,34.272c0,24.449-7.741,42.814-23.221,55.094
		c-15.481,12.283-38.416,18.537-68.803,18.766H0.422z M60.571,110.958h31.36c13.136-0.113,22.505-2.521,28.104-7.22
		c5.596-4.696,8.397-11.629,8.397-20.797c0-10.542-3.028-18.133-9.083-22.772c-6.057-4.641-15.825-6.961-29.304-6.961H60.57
		L60.571,110.958L60.571,110.958z M60.571,150.372v59.807h39.414c10.852,0,19.193-2.485,25.02-7.454
		c5.826-4.97,8.739-11.968,8.739-20.993c0-20.791-10.341-31.244-31.017-31.359H60.571L60.571,150.372z"/>
	<path fill="#222222" d="M319.506,168.193h-32.561v88.253h-60.148V6.939h98.191c29.587,0,52.723,6.563,69.403,19.686
		C411.07,39.75,419.41,58.295,419.41,82.26c0,17.348-3.513,31.727-10.539,43.139c-7.025,11.412-18.021,20.656-32.987,27.73
		l52.095,100.744v2.573h-64.434L319.506,168.193z M286.945,121.924h38.043c11.423,0,20.021-3.004,25.791-9.019
		c5.769-6.014,8.654-14.401,8.654-25.169c0-10.766-2.914-19.212-8.74-25.338c-5.827-6.127-14.395-9.191-25.705-9.191h-38.043
		V121.924z"/>
</g>
<g enable-background="new    ">
	<path fill="#222222" d="M793.844,209.834h-82.428l-14.395,46.611H632.76L724.27,6.938h56.551l92.193,249.508h-64.604
		L793.844,209.834z M725.813,163.395h53.637l-26.902-86.539L725.813,163.395z"/>
	<path fill="#222222" d="M891.18,256.446V6.939h80.371c22.047,0,41.869,4.999,59.465,14.994
		c17.592,9.998,31.33,24.106,41.213,42.327c9.881,18.224,14.879,38.643,14.994,61.264v11.48c0,22.852-4.828,43.328-14.48,61.436
		c-9.654,18.107-23.25,32.275-40.785,42.498c-17.537,10.227-37.1,15.396-58.691,15.509L891.18,256.446L891.18,256.446z
		 M951.329,53.377v156.801h20.908c17.248,0,30.502-6.141,39.756-18.422c9.254-12.279,13.881-30.53,13.881-54.752v-10.795
		c0-24.104-4.627-42.27-13.881-54.496c-9.254-12.223-22.734-18.336-40.441-18.336H951.329z"/>
	<path fill="#222222" d="M1202.038,115.241l45.928-108.303h64.945l-80.369,159.884v89.624h-61.008v-89.624L1091.336,6.938h64.604
		L1202.038,115.241z"/>
</g>
<g>
	<g>
		<path fill="#222222" d="M583.182,214.615c0.043-0.079,0.092-0.138,0.139-0.212c1.035-1.57,1.094-3.609,0.141-5.234
			c-0.955-1.641-2.758-2.584-4.643-2.432c-15.533,1.137-29.479-0.042-38.393-1.221c-0.82-0.116-1.441-0.803-1.477-1.641
			c-0.023-0.822,0.563-1.551,1.363-1.715c23.984-4.734,44.646-14.047,56.016-19.875c1.232-0.632,2.143-1.74,2.514-3.068
			c4.311-15.373,5.816-29.633,6.297-38.498c0.084-1.561-0.574-3.067-1.779-4.076c-1.199-0.997-2.807-1.369-4.332-1.008
			c-22.527,5.404-47.396,3.971-60.021,2.664c-0.814-0.09-1.449-0.732-1.521-1.539c-0.08-0.807,0.439-1.557,1.219-1.778
			c14.777-4.263,46.174-13.919,62.516-23.481c1.66-0.973,2.609-2.824,2.432-4.738c-1.211-12.981-3.074-25.463-8.111-36.584
			c0-0.004,0-0.004,0-0.014c0-2.199-2.365-3.511-4.691-3.145c-20.447,3.238-39.479,1.738-50.771,0.244
			c-0.816-0.114-1.26-0.795-1.287-1.633c-0.025-0.826,0.639-1.553,1.455-1.717c15.504-3.062,29.666-8.045,40.807-12.763
			c1.615-0.687,2.883-2.032,3.438-3.708c0.559-1.67,0.377-3.496-0.504-5.017c-17.396-29.953-37.729-43.32-58.488-43.32
			c-44.161,0-49.395,57.61-49.395,128.673s5.231,128.665,49.395,128.665C544.52,256.467,563.249,244.586,583.182,214.615z"/>
	</g>
</g>
<g enable-background="new    ">
	<path fill="#222222" d="M495.594,316.215l25.04-34.912h6.523l-29.668,40.291l-4.144,23.895h-5.378l4.275-24.467l-15.429-39.719
		h6.04L495.594,316.215z"/>
	<path fill="#222222" d="M522.44,321.198c0.529-4.613,1.941-8.838,4.232-12.676c2.293-3.834,5.15-6.75,8.574-8.75
		c3.422-1.996,7.135-2.953,11.131-2.863c3.938,0.059,7.297,1.139,10.072,3.238c2.777,2.102,4.807,4.969,6.084,8.598
		s1.711,7.646,1.299,12.057l-0.088,0.838c-0.881,7.523-3.547,13.563-8,18.117c-4.453,4.557-9.795,6.76-16.023,6.613
		c-5.35-0.088-9.625-2.059-12.828-5.908c-3.205-3.85-4.777-8.934-4.717-15.252l0.131-2.514L522.44,321.198z M527.553,322.696
		c-0.381,3.498-0.125,6.723,0.771,9.678c0.896,2.953,2.328,5.268,4.297,6.941c1.971,1.676,4.424,2.557,7.363,2.646
		c3.174,0.059,6.076-0.75,8.707-2.426c2.629-1.674,4.797-4.039,6.502-7.098c1.703-3.057,2.805-6.436,3.305-10.139l0.133-1.455
		c0.529-5.672-0.346-10.309-2.623-13.908s-5.576-5.443-9.896-5.531c-4.703-0.146-8.766,1.668-12.188,5.443
		c-3.426,3.775-5.52,8.795-6.283,15.055L527.553,322.696z"/>
	<path fill="#222222" d="M602.317,339.493c-3.791,4.76-9.021,7.053-15.693,6.877c-4.496-0.088-7.846-1.713-10.051-4.871
		c-2.203-3.16-2.998-7.545-2.379-13.16l5.113-30.549h5.201l-5.068,30.682c-0.176,1.588-0.191,3.16-0.045,4.719
		c0.205,2.703,1.014,4.789,2.424,6.26c1.41,1.469,3.352,2.248,5.82,2.336c3.525,0.146,6.789-0.668,9.785-2.447
		c2.998-1.777,4.938-4.105,5.818-6.986l5.908-34.563h5.289l-8.287,47.699h-5.115L602.317,339.493z"/>
	<path fill="#222222" d="M648.34,302.243c-1.146-0.236-2.307-0.367-3.482-0.398c-3.35,0-6.42,1.021-9.213,3.064
		c-2.791,2.043-4.658,4.637-5.598,7.779l-5.645,32.799h-5.201l8.287-47.697h5.158l-1.586,7.582c1.732-2.82,3.828-4.967,6.281-6.438
		c2.455-1.469,5.15-2.174,8.09-2.115c1.027,0,2.232,0.207,3.615,0.617L648.34,302.243z"/>
	<path fill="#222222" d="M682.594,305.858c4.584-6.084,9.992-9.066,16.223-8.949c4.584,0.117,7.92,1.719,10.006,4.805
		s2.822,7.334,2.205,12.74l-5.203,31.035h-5.201l5.201-31.094c0.178-1.672,0.205-3.285,0.088-4.844
		c-0.5-5.225-3.35-7.912-8.551-8.059c-3.086-0.061-5.967,0.857-8.641,2.752c-2.676,1.895-5.025,4.75-7.053,8.564l-5.645,32.678
		h-5.201l11.77-67.711h5.203L682.594,305.858z"/>
	<path fill="#222222" d="M738.227,346.37c-3.822-0.061-7.127-1.125-9.92-3.197c-2.791-2.072-4.842-4.893-6.148-8.463
		c-1.309-3.57-1.771-7.428-1.389-11.572l0.131-1.498c0.412-4.408,1.719-8.604,3.924-12.586c2.203-3.98,4.996-7.023,8.375-9.125
		s6.994-3.107,10.846-3.02c3.555,0.059,6.561,1.027,9.014,2.908c2.455,1.881,4.24,4.496,5.355,7.848
		c1.117,3.35,1.471,7.053,1.059,11.109l-0.354,3.217h-33.018l-0.133,1.059c-0.441,3.203-0.205,6.268,0.705,9.191
		c0.912,2.924,2.402,5.246,4.475,6.965s4.564,2.607,7.473,2.666c2.82,0.09,5.363-0.455,7.625-1.631
		c2.264-1.174,4.35-2.746,6.262-4.717l3.086,2.514c-2.146,2.762-4.695,4.855-7.648,6.281S741.752,346.428,738.227,346.37z
		 M743.78,301.405c-3.82-0.146-7.244,1.205-10.27,4.055c-3.027,2.852-5.307,6.863-6.834,12.035l27.684,0.045l0.133-0.662
		c0.529-4.172-0.207-7.766-2.205-10.777C750.29,303.086,747.454,301.524,743.78,301.405z"/>
	<path fill="#222222" d="M794.653,345.487c-0.146-1.115-0.191-2.232-0.133-3.352l0.396-3.305c-2.203,2.379-4.725,4.246-7.561,5.598
		s-5.9,1.998-9.191,1.939c-4.025-0.061-7.295-1.328-9.807-3.813c-2.514-2.482-3.637-5.605-3.373-9.367
		c0.234-3.145,1.314-5.869,3.24-8.178c1.924-2.307,4.664-4.1,8.221-5.379c3.557-1.277,7.537-1.918,11.947-1.918l9.742,0.045
		l0.793-5.467c0.352-3.262-0.354-5.877-2.117-7.846c-1.762-1.971-4.363-3.014-7.801-3.131c-3.469-0.059-6.488,0.801-9.061,2.578
		c-2.57,1.779-4.18,4.121-4.826,7.031h-5.158c0.588-4.172,2.732-7.574,6.436-10.205s8.082-3.916,13.137-3.855
		c4.908,0.117,8.691,1.602,11.354,4.451c2.658,2.852,3.738,6.555,3.24,11.107l-3.969,23.982l-0.352,3.834
		c-0.088,1.588,0.029,3.16,0.352,4.717l-0.088,0.529h-5.422V345.487z M779.047,341.784c3.23,0.119,6.324-0.654,9.277-2.318
		s5.4-4.027,7.34-7.092l1.809-10.561l-8.42-0.043c-5.35,0-9.713,0.949-13.092,2.85c-3.381,1.898-5.246,4.617-5.6,8.15
		c-0.264,2.594,0.418,4.729,2.049,6.406C774.043,340.858,776.254,341.725,779.047,341.784z"/>
	<path fill="#222222" d="M818.192,345.487h-5.289l11.77-67.711h5.291L818.192,345.487z"/>
	<path fill="#222222" d="M850.858,285.579l-2.117,12.211h9.566l-0.75,4.32h-9.566l-5.289,31.826l-0.088,2.734
		c0,3.203,1.469,4.848,4.408,4.938c0.91,0.029,2.336-0.072,4.277-0.309l-0.223,4.318c-1.732,0.5-3.498,0.721-5.289,0.662
		c-3.086-0.061-5.334-1.139-6.746-3.24c-1.41-2.1-1.924-5.15-1.543-9.146l5.246-31.783h-8.551l0.793-4.32h8.463l2.16-12.211H850.858
		z"/>
	<path fill="#222222" d="M872.723,305.858c4.584-6.084,9.992-9.066,16.223-8.949c4.584,0.117,7.92,1.719,10.006,4.805
		s2.822,7.334,2.205,12.74l-5.203,31.035h-5.201l5.201-31.094c0.178-1.672,0.205-3.285,0.088-4.844
		c-0.5-5.225-3.35-7.912-8.551-8.059c-3.086-0.061-5.967,0.857-8.641,2.752c-2.676,1.895-5.025,4.75-7.053,8.564l-5.645,32.678
		h-5.201l11.77-67.711h5.203L872.723,305.858z"/>
	<path fill="#222222" d="M909.532,342.313c0.088-1.027,0.508-1.9,1.256-2.621c0.75-0.721,1.639-1.096,2.668-1.125
		c1.059-0.029,1.924,0.322,2.602,1.059c0.676,0.734,0.969,1.631,0.881,2.689c-0.059,1.027-0.463,1.871-1.211,2.533
		c-0.75,0.662-1.641,1.006-2.668,1.035c-1.029,0.029-1.889-0.293-2.578-0.969C909.79,344.239,909.473,343.372,909.532,342.313z"/>
	<path fill="#222222" d="M975.922,346.37c-5.996-0.119-10.75-2.197-14.262-6.238s-5.416-9.439-5.709-16.201
		c-0.117-2.35-0.014-4.688,0.311-7.008l0.881-6.084c1.322-8.963,4.555-16.281,9.699-21.953c5.26-5.789,11.754-8.609,19.484-8.465
		c3.938,0.088,7.383,1.051,10.336,2.889c2.955,1.836,5.254,4.512,6.9,8.021c1.645,3.514,2.541,7.371,2.688,11.572
		c0.09,2.527-0.045,4.996-0.396,7.406l-1.014,6.787c-1.029,6.057-2.932,11.346-5.709,15.871s-6.148,7.912-10.117,10.16
		C985.047,345.377,980.682,346.458,975.922,346.37z M1000.563,309.825c0.236-1.854,0.367-3.732,0.396-5.645
		c0-3.584-0.559-6.848-1.676-9.785c-1.115-2.938-2.799-5.193-5.047-6.768c-2.248-1.572-4.975-2.402-8.178-2.49
		c-5.877-0.146-10.889,1.961-15.033,6.326c-4.143,4.363-6.877,10.264-8.199,17.699c-1.057,6.023-1.572,10.477-1.543,13.355
		c0,5.938,1.301,10.58,3.902,13.932c2.6,3.35,6.266,5.084,10.998,5.201c6.26,0.146,11.439-2.115,15.539-6.789
		s6.723-10.846,7.869-18.516L1000.563,309.825z"/>
	<path fill="#222222" d="M1043.854,339.493c-3.791,4.76-9.023,7.053-15.693,6.877c-4.498-0.088-7.848-1.713-10.053-4.871
		c-2.203-3.16-2.996-7.545-2.379-13.16l5.113-30.549h5.201l-5.068,30.682c-0.178,1.588-0.193,3.16-0.045,4.719
		c0.205,2.703,1.014,4.789,2.424,6.26c1.412,1.469,3.352,2.248,5.82,2.336c3.525,0.146,6.787-0.668,9.785-2.447
		c2.998-1.777,4.938-4.105,5.818-6.986l5.908-34.563h5.289l-8.287,47.699h-5.113L1043.854,339.493z"/>
	<path fill="#222222" d="M1089.877,302.243c-1.146-0.236-2.309-0.367-3.482-0.398c-3.352,0-6.422,1.021-9.215,3.064
		c-2.791,2.043-4.658,4.637-5.6,7.779l-5.643,32.799h-5.201l8.287-47.697h5.158l-1.588,7.582c1.734-2.82,3.828-4.967,6.281-6.438
		c2.453-1.469,5.15-2.174,8.09-2.115c1.027,0,2.232,0.207,3.615,0.617L1089.877,302.243z"/>
	<path fill="#222222" d="M1116.016,345.487l7.539-43.377h-7.67l0.793-4.32h7.627l0.926-6.48c0.734-4.672,2.52-8.287,5.354-10.844
		c2.836-2.557,6.371-3.807,10.604-3.748c1.705,0.061,3.629,0.354,5.775,0.883l-0.928,4.363c-1.645-0.441-3.217-0.66-4.717-0.66
		c-2.938,0-5.371,0.955-7.295,2.865c-1.926,1.91-3.139,4.57-3.637,7.979l-0.838,5.643h11.064l-0.795,4.32h-10.977l-7.537,43.379
		h-5.289V345.487z"/>
	<path fill="#222222" d="M1143.084,321.198c0.527-4.613,1.939-8.838,4.23-12.676c2.293-3.834,5.15-6.75,8.574-8.75
		c3.424-1.996,7.135-2.953,11.131-2.863c3.938,0.059,7.297,1.139,10.074,3.238c2.775,2.102,4.805,4.969,6.082,8.598
		s1.713,7.646,1.301,12.057l-0.088,0.838c-0.881,7.523-3.549,13.563-8,18.117c-4.453,4.557-9.795,6.76-16.025,6.613
		c-5.35-0.088-9.625-2.059-12.828-5.908s-4.775-8.934-4.717-15.252l0.133-2.514L1143.084,321.198z M1148.198,322.696
		c-0.383,3.498-0.125,6.723,0.771,9.678c0.895,2.953,2.328,5.268,4.297,6.941c1.969,1.676,4.424,2.557,7.363,2.646
		c3.174,0.059,6.074-0.75,8.705-2.426c2.631-1.674,4.799-4.039,6.502-7.098c1.703-3.057,2.807-6.436,3.307-10.139l0.133-1.455
		c0.529-5.672-0.346-10.309-2.623-13.908s-5.576-5.443-9.896-5.531c-4.701-0.146-8.766,1.668-12.188,5.443
		c-3.424,3.775-5.52,8.795-6.283,15.055L1148.198,322.696z"/>
	<path fill="#222222" d="M1192.588,321.198c0.527-4.613,1.939-8.838,4.23-12.676c2.293-3.834,5.15-6.75,8.574-8.75
		c3.424-1.996,7.135-2.953,11.131-2.863c3.938,0.059,7.297,1.139,10.074,3.238c2.775,2.102,4.805,4.969,6.082,8.598
		s1.713,7.646,1.301,12.057l-0.088,0.838c-0.881,7.523-3.549,13.563-8,18.117c-4.453,4.557-9.795,6.76-16.025,6.613
		c-5.35-0.088-9.625-2.059-12.828-5.908s-4.775-8.934-4.717-15.252l0.133-2.514L1192.588,321.198z M1197.702,322.696
		c-0.383,3.498-0.125,6.723,0.771,9.678c0.896,2.953,2.33,5.268,4.299,6.941c1.969,1.676,4.422,2.557,7.361,2.646
		c3.174,0.059,6.074-0.75,8.707-2.426c2.629-1.674,4.797-4.039,6.502-7.098c1.703-3.057,2.807-6.436,3.307-10.139l0.131-1.455
		c0.529-5.672-0.346-10.309-2.623-13.908c-2.275-3.6-5.576-5.443-9.895-5.531c-4.703-0.146-8.768,1.668-12.189,5.443
		c-3.424,3.775-5.518,8.795-6.281,15.055L1197.702,322.696z"/>
	<path fill="#222222" d="M1242.932,321.506c0.676-4.996,2.043-9.426,4.1-13.291s4.576-6.736,7.561-8.619
		c2.982-1.879,6.326-2.775,10.029-2.688c2.82,0.059,5.393,0.713,7.715,1.961c2.32,1.25,4.156,3.139,5.51,5.666l4.85-26.758h5.201
		l-11.77,67.711h-4.895l1.191-6.35c-4.146,4.996-9.287,7.406-15.432,7.23c-4.438-0.119-7.912-1.844-10.426-5.18
		c-2.512-3.336-3.828-7.826-3.945-13.469c-0.059-1.82,0.016-3.586,0.223-5.291L1242.932,321.506z M1248.221,322.387
		c-0.234,1.963-0.322,4.061-0.266,6.289c0.117,4.018,1.053,7.178,2.801,9.48s4.238,3.512,7.473,3.629
		c3.262,0.088,6.127-0.66,8.596-2.242c2.471-1.584,4.557-3.695,6.262-6.336l3.834-22.432c-0.854-2.846-2.256-5.082-4.209-6.709
		c-1.955-1.629-4.445-2.484-7.473-2.574c-4.469-0.146-8.193,1.563-11.176,5.125c-2.984,3.563-4.9,8.512-5.754,14.846
		L1248.221,322.387z"/>
	<path fill="#222222" d="M1290.012,342.313c0.088-1.027,0.508-1.9,1.256-2.621c0.75-0.721,1.639-1.096,2.668-1.125
		c1.059-0.029,1.924,0.322,2.602,1.059c0.676,0.734,0.971,1.631,0.881,2.689c-0.059,1.027-0.463,1.871-1.213,2.533
		c-0.748,0.662-1.639,1.006-2.666,1.035c-1.029,0.029-1.889-0.293-2.578-0.969C1290.27,344.239,1289.954,343.372,1290.012,342.313z"
		/>
</g>
</svg>
