<?xml version="1.0" encoding="utf-8"?>
<!-- Generator: Adobe Illustrator 16.0.0, SVG Export Plug-In . SVG Version: 6.00 Build 0)  -->
<!DOCTYPE svg PUBLIC "-//W3C//DTD SVG 1.1//EN" "http://www.w3.org/Graphics/SVG/1.1/DTD/svg11.dtd">
<svg version="1.1" id="Capa_1" xmlns="http://www.w3.org/2000/svg" xmlns:xlink="http://www.w3.org/1999/xlink" x="0px" y="0px"
	 width="1313.333px" height="257.346px" viewBox="0 0 1313.333 257.346" enable-background="new 0 0 1313.333 257.346"
	 xml:space="preserve">
<g enable-background="new    ">
	<path fill="#EEEEEE" d="M0.422,256.448V6.939h89.624c32.102,0,56.521,5.888,73.259,17.649
		c16.734,11.769,25.104,28.85,25.104,51.238c0,12.908-2.972,23.937-8.911,33.07c-5.941,9.145-14.681,15.884-26.219,20.225
		c13.024,3.428,23.021,9.826,29.989,19.189c6.967,9.369,10.453,20.794,10.453,34.271c0,24.449-7.741,42.813-23.221,55.094
		c-15.481,12.283-38.416,18.537-68.803,18.767L0.422,256.448L0.422,256.448z M60.571,110.958h31.36
		c13.136-0.113,22.505-2.521,28.104-7.223c5.596-4.693,8.397-11.629,8.397-20.797c0-10.542-3.028-18.133-9.083-22.771
		c-6.057-4.644-15.825-6.961-29.304-6.961H60.57L60.571,110.958L60.571,110.958z M60.571,150.373v59.807h39.414
		c10.852,0,19.193-2.484,25.02-7.453c5.826-4.971,8.739-11.969,8.739-20.993c0-20.791-10.341-31.241-31.017-31.356L60.571,150.373
		L60.571,150.373z"/>
	<path fill="#EEEEEE" d="M319.506,168.193h-32.561v88.253h-60.148V6.939h98.191c29.587,0,52.723,6.563,69.398,19.688
		c16.684,13.125,25.021,31.67,25.021,55.635c0,17.349-3.516,31.729-10.539,43.14c-7.025,11.412-18.021,20.656-32.987,27.729
		l52.095,100.744v2.572h-64.434L319.506,168.193z M286.945,121.924h38.043c11.423,0,20.021-3.004,25.791-9.019
		c5.769-6.017,8.649-14.401,8.649-25.172c0-10.767-2.914-19.212-8.735-25.338c-5.827-6.127-14.396-9.188-25.705-9.188h-38.043
		V121.924z"/>
</g>
<g enable-background="new    ">
	<path fill="#EEEEEE" d="M793.844,209.833h-82.428l-14.395,46.608H632.76L724.27,6.938h56.551l92.193,249.508h-64.604
		L793.844,209.833z M725.813,163.395h53.637l-26.902-86.539L725.813,163.395z"/>
	<path fill="#EEEEEE" d="M891.18,256.448V6.939h80.371c22.047,0,41.869,4.999,59.465,14.994
		c17.592,9.998,31.33,24.105,41.213,42.326c9.881,18.225,14.879,38.644,14.994,61.265v11.479c0,22.853-4.828,43.328-14.48,61.437
		c-9.654,18.106-23.25,32.274-40.785,42.498c-17.537,10.229-37.1,15.396-58.689,15.513L891.18,256.448L891.18,256.448z
		 M951.329,53.377v156.8h20.908c17.248,0,30.502-6.141,39.756-18.422c9.254-12.277,13.881-30.528,13.881-54.752v-10.794
		c0-24.104-4.627-42.271-13.881-54.496c-9.254-12.223-22.734-18.336-40.441-18.336H951.329z"/>
	<path fill="#EEEEEE" d="M1202.038,115.241l45.928-108.306h64.945l-80.369,159.887v89.621h-61.008v-89.621L1091.336,6.938h64.604
		L1202.038,115.241z"/>
</g>
<g>
	<g>
		<path fill="#EEEEEE" d="M583.182,214.615c0.043-0.078,0.097-0.141,0.144-0.215c1.034-1.566,1.094-3.605,0.141-5.23
			c-0.955-1.645-2.758-2.584-4.643-2.436c-15.533,1.141-29.479-0.042-38.396-1.221c-0.816-0.116-1.438-0.805-1.477-1.643
			c-0.023-0.822,0.563-1.552,1.358-1.715c23.984-4.734,44.646-14.049,56.021-19.875c1.229-0.635,2.143-1.74,2.514-3.068
			c4.313-15.373,5.816-29.633,6.297-38.498c0.084-1.562-0.57-3.065-1.774-4.074c-1.199-0.997-2.812-1.369-4.332-1.01
			c-22.527,5.404-47.396,3.973-60.021,2.664c-0.813-0.09-1.446-0.73-1.521-1.539c-0.08-0.807,0.438-1.557,1.219-1.776
			c14.777-4.265,46.174-13.919,62.516-23.479c1.66-0.976,2.609-2.824,2.437-4.737c-1.211-12.979-3.074-25.464-8.111-36.584
			c0-0.005,0-0.005,0-0.015c0-2.199-2.365-3.514-4.688-3.146c-20.445,3.237-39.479,1.737-50.771,0.244
			c-0.814-0.114-1.26-0.796-1.287-1.634c-0.022-0.825,0.641-1.553,1.455-1.717c15.504-3.063,29.666-8.045,40.809-12.766
			c1.613-0.688,2.885-2.029,3.438-3.708c0.56-1.67,0.377-3.495-0.504-5.018C566.597,12.47,546.264-0.897,525.505-0.897
			c-44.161,0-49.396,57.609-49.396,128.673c0,71.064,5.229,128.665,49.396,128.665C544.52,256.466,563.249,244.585,583.182,214.615z
			"/>
	</g>
</g>
</svg>
