<?xml version="1.0" encoding="utf-8"?>
<!-- Generator: Adobe Illustrator 16.0.0, SVG Export Plug-In . SVG Version: 6.00 Build 0)  -->
<!DOCTYPE svg PUBLIC "-//W3C//DTD SVG 1.1//EN" "http://www.w3.org/Graphics/SVG/1.1/DTD/svg11.dtd">
<svg version="1.1" id="Layer_1" xmlns="http://www.w3.org/2000/svg" xmlns:xlink="http://www.w3.org/1999/xlink" x="0px" y="0px"
	 width="1000px" height="832.532px" viewBox="0 83.5 1000 832.532" enable-background="new 0 83.5 1000 832.532"
	 xml:space="preserve">
<path fill="#EEEEEE" d="M0,824.002c108.066,13.021,209.622-16.275,304.668-87.885c-44.268,1.302-83.328-11.718-117.18-39.061
	c-33.852-27.342-59.241-62.496-76.167-105.462c11.718,2.604,26.04,3.255,42.966,1.953c22.134-1.302,38.409-3.255,48.825-5.858
	C136.71,565.555,90.489,529.75,64.449,480.274c-15.624-33.853-23.436-68.355-23.436-103.509
	c37.758,19.53,68.355,28.644,91.791,27.342c-53.382-45.57-83.328-94.396-89.838-146.476c-3.906-41.664,4.557-86.583,25.389-134.757
	c75.516,83.328,154.938,143.22,238.266,179.676c62.496,26.04,124.341,39.06,185.535,39.06
	c-7.813-62.496,0.65-115.227,25.389-158.193c29.946-46.872,72.912-78.12,128.898-93.744c36.456-9.114,71.609-8.138,105.462,2.929
	c33.852,11.067,62.496,29.62,85.932,55.66c40.362-3.906,84.63-20.181,132.804-48.825c-19.529,57.288-50.127,96.348-91.791,117.18
	c41.664-6.51,82.026-18.228,121.086-35.154c-6.51,13.02-18.879,30.597-37.106,52.731c-18.229,22.134-41.013,41.013-68.355,56.637
	c1.303,6.51,1.953,12.369,1.953,17.577c2.604,72.912-11.718,150.381-42.966,232.407
	c-53.382,134.105-134.105,235.011-242.172,302.715c-106.764,59.892-234.36,82.677-382.788,68.354
	C134.757,901.47,58.59,872.175,0,824.002L0,824.002z"/>
</svg>
