<?xml version="1.0" standalone="no"?>
<!DOCTYPE svg PUBLIC "-//W3C//DTD SVG 20010904//EN"
 "http://www.w3.org/TR/2001/REC-SVG-20010904/DTD/svg10.dtd">
<svg version="1.0" xmlns="http://www.w3.org/2000/svg"
 width="4242.000000pt" height="4242.000000pt" viewBox="0 0 4242.000000 4242.000000"
 preserveAspectRatio="xMidYMid meet">
<metadata>
Created by potrace 1.11, written by Peter Selinger 2001-2013
</metadata>
<g transform="translate(0.000000,4242.000000) scale(0.100000,-0.100000)"
fill="#000000" stroke="none">
<path d="M12297 35849 c-477 -84 -864 -412 -1001 -849 -57 -180 -56 -134 -56
-1907 l0 -1633 -4167 0 c-2626 0 -4228 -4 -4330 -10 -90 -5 -209 -17 -265 -25
-922 -138 -1709 -708 -2129 -1540 -156 -309 -246 -610 -291 -965 -19 -156 -19
-19684 0 -19840 66 -525 251 -991 553 -1393 476 -633 1164 -1028 1969 -1129
157 -19 37094 -19 37250 0 814 103 1481 482 1971 1120 301 392 495 878 561
1402 19 155 19 19671 0 19835 -42 350 -134 658 -291 970 -420 832 -1207 1402
-2129 1540 -56 8 -175 20 -265 25 -102 6 -1706 10 -4334 10 l-4173 0 0 1638
c0 1031 -4 1663 -10 1707 -38 265 -151 489 -344 681 -200 199 -426 315 -711
364 -116 20 -159 20 -8908 19 -8594 -1 -8794 -1 -8900 -20z m15439 -2638 c57
-33 136 -115 165 -173 18 -36 19 -68 19 -808 l0 -770 -6710 0 -6710 0 0 758 0
758 27 53 c31 63 122 159 178 189 l40 21 6470 0 6470 1 51 -29z m11939 -1801
c182 -11 397 -44 535 -84 l85 -24 -19085 0 -19085 0 85 24 c130 37 358 75 509
83 208 12 36751 13 36956 1z m-17260 -3004 c1018 -81 1973 -280 2793 -582 450
-166 966 -421 1333 -660 57 -37 180 -102 273 -145 687 -319 1399 -813 1955
-1356 l130 -128 -765 -800 c-420 -440 -773 -809 -784 -819 -19 -20 -21 -18
-222 180 -210 206 -352 330 -546 477 l-112 85 -97 -99 -96 -99 -191 188 c-255
251 -466 428 -742 625 -107 77 -141 95 -289 152 -918 361 -1844 520 -2817 485
-886 -32 -1667 -189 -2412 -484 -1698 -675 -3009 -1912 -3755 -3546 -385 -844
-591 -1663 -673 -2675 -20 -251 -17 -1076 5 -1335 80 -921 275 -1707 620
-2490 529 -1202 1342 -2199 2367 -2902 222 -152 946 -398 1536 -522 844 -177
1831 -216 2774 -110 1146 128 2248 434 3188 885 l162 78 0 2430 0 2431 -1510
0 -1510 0 0 280 0 280 -530 0 -530 0 0 975 0 975 3090 0 3090 0 0 -285 0 -285
525 0 525 0 0 -4347 0 -4348 -43 -23 c-961 -529 -1956 -921 -2997 -1182 -981
-247 -1957 -387 -2995 -431 -313 -13 -1121 -7 -1350 10 -1029 78 -1817 231
-2655 516 -619 211 -1271 513 -1810 840 -74 45 -178 101 -230 124 -126 56
-440 219 -617 320 -529 300 -996 633 -1461 1037 -181 158 -599 574 -751 749
-1088 1247 -1797 2775 -2075 4467 -95 576 -137 1127 -138 1788 0 942 93 1726
302 2545 317 1243 936 2462 1740 3425 986 1181 2294 2100 3815 2683 920 352
1915 564 2935 627 96 6 200 12 230 14 158 10 1129 -3 1315 -18z"/>
</g>
</svg>
